ISO-10303-21;
HEADER;
/* Generated by software containing ST-Developer
 * from STEP Tools, Inc. (www.steptools.com) 
 */

FILE_DESCRIPTION(
/* description */ (''),
/* implementation_level */ '2;1');

FILE_NAME(
/* name */ 'base part project final.step',
/* time_stamp */ '2026-09-27T22:24:45+05:30',
/* author */ (''),
/* organization */ (''),
/* preprocessor_version */ 'ST-DEVELOPER v20.2',
/* originating_system */ 'Autodesk Translation Framework v15.15.0.0',
/* authorisation */ '');

FILE_SCHEMA (('AUTOMOTIVE_DESIGN { 1 0 10303 214 3 1 1 }'));
ENDSEC;

DATA;
#10=MECHANICAL_DESIGN_GEOMETRIC_PRESENTATION_REPRESENTATION('',(#13),#1819);
#11=SHAPE_REPRESENTATION_RELATIONSHIP('SRR','None',#1826,#12);
#12=ADVANCED_BREP_SHAPE_REPRESENTATION('',(#14),#1818);
#13=STYLED_ITEM('',(#1835),#14);
#14=MANIFOLD_SOLID_BREP('Body1',#1043);
#15=FACE_BOUND('',#184,.T.);
#16=FACE_BOUND('',#185,.T.);
#17=FACE_BOUND('',#186,.T.);
#18=FACE_BOUND('',#187,.T.);
#19=FACE_BOUND('',#188,.T.);
#20=FACE_BOUND('',#189,.T.);
#21=FACE_BOUND('',#190,.T.);
#22=FACE_BOUND('',#191,.T.);
#23=FACE_BOUND('',#217,.T.);
#24=FACE_BOUND('',#218,.T.);
#25=FACE_BOUND('',#219,.T.);
#26=FACE_BOUND('',#220,.T.);
#27=FACE_BOUND('',#221,.T.);
#28=FACE_BOUND('',#222,.T.);
#29=FACE_BOUND('',#223,.T.);
#30=FACE_BOUND('',#224,.T.);
#31=PLANE('',#1080);
#32=PLANE('',#1084);
#33=PLANE('',#1088);
#34=PLANE('',#1092);
#35=PLANE('',#1096);
#36=PLANE('',#1100);
#37=PLANE('',#1104);
#38=PLANE('',#1108);
#39=PLANE('',#1109);
#40=PLANE('',#1112);
#41=PLANE('',#1115);
#42=PLANE('',#1118);
#43=PLANE('',#1121);
#44=PLANE('',#1132);
#45=PLANE('',#1135);
#46=PLANE('',#1138);
#47=PLANE('',#1141);
#48=PLANE('',#1142);
#49=PLANE('',#1145);
#50=PLANE('',#1148);
#51=PLANE('',#1151);
#52=PLANE('',#1154);
#53=PLANE('',#1157);
#54=PLANE('',#1160);
#55=PLANE('',#1163);
#56=PLANE('',#1166);
#57=B_SPLINE_CURVE_WITH_KNOTS('',3,(#1515,#1516,#1517,#1518),
 .UNSPECIFIED.,.F.,.F.,(4,4),(-0.282537766986238,0.),.UNSPECIFIED.);
#58=B_SPLINE_CURVE_WITH_KNOTS('',3,(#1521,#1522,#1523,#1524),
 .UNSPECIFIED.,.F.,.F.,(4,4),(-0.282537767012238,0.),.UNSPECIFIED.);
#59=B_SPLINE_CURVE_WITH_KNOTS('',3,(#1529,#1530,#1531,#1532),
 .UNSPECIFIED.,.F.,.F.,(4,4),(-0.312525952125586,0.),.UNSPECIFIED.);
#60=B_SPLINE_CURVE_WITH_KNOTS('',3,(#1538,#1539,#1540,#1541),
 .UNSPECIFIED.,.F.,.F.,(4,4),(-0.3125259521261,0.),.UNSPECIFIED.);
#61=B_SPLINE_CURVE_WITH_KNOTS('',3,(#1547,#1548,#1549,#1550),
 .UNSPECIFIED.,.F.,.F.,(4,4),(-0.282537766989249,0.),.UNSPECIFIED.);
#62=B_SPLINE_CURVE_WITH_KNOTS('',3,(#1556,#1557,#1558,#1559),
 .UNSPECIFIED.,.F.,.F.,(4,4),(-0.282537766998385,0.),.UNSPECIFIED.);
#63=B_SPLINE_CURVE_WITH_KNOTS('',3,(#1565,#1566,#1567,#1568),
 .UNSPECIFIED.,.F.,.F.,(4,4),(-0.312525952125473,0.),.UNSPECIFIED.);
#64=B_SPLINE_CURVE_WITH_KNOTS('',3,(#1574,#1575,#1576,#1577),
 .UNSPECIFIED.,.F.,.F.,(4,4),(-0.312525952126952,0.),.UNSPECIFIED.);
#65=B_SPLINE_CURVE_WITH_KNOTS('',3,(#1583,#1584,#1585,#1586),
 .UNSPECIFIED.,.F.,.F.,(4,4),(-0.282537766999041,0.),.UNSPECIFIED.);
#66=B_SPLINE_CURVE_WITH_KNOTS('',3,(#1592,#1593,#1594,#1595),
 .UNSPECIFIED.,.F.,.F.,(4,4),(-0.282537767022884,0.),.UNSPECIFIED.);
#67=B_SPLINE_CURVE_WITH_KNOTS('',3,(#1602,#1603,#1604,#1605),
 .UNSPECIFIED.,.F.,.F.,(4,4),(-0.312525952126415,0.),.UNSPECIFIED.);
#68=B_SPLINE_CURVE_WITH_KNOTS('',3,(#1611,#1612,#1613,#1614),
 .UNSPECIFIED.,.F.,.F.,(4,4),(-0.312525952126337,0.),.UNSPECIFIED.);
#69=B_SPLINE_CURVE_WITH_KNOTS('',3,(#1620,#1621,#1622,#1623),
 .UNSPECIFIED.,.F.,.F.,(4,4),(-0.282537767000263,0.),.UNSPECIFIED.);
#70=B_SPLINE_CURVE_WITH_KNOTS('',3,(#1629,#1630,#1631,#1632),
 .UNSPECIFIED.,.F.,.F.,(4,4),(-0.28253776699935,0.),.UNSPECIFIED.);
#71=B_SPLINE_CURVE_WITH_KNOTS('',3,(#1638,#1639,#1640,#1641),
 .UNSPECIFIED.,.F.,.F.,(4,4),(-0.312525952126298,0.),.UNSPECIFIED.);
#72=B_SPLINE_CURVE_WITH_KNOTS('',3,(#1647,#1648,#1649,#1650),
 .UNSPECIFIED.,.F.,.F.,(4,4),(-0.312525952127042,0.),.UNSPECIFIED.);
#73=CYLINDRICAL_SURFACE('',#1060,1.65);
#74=CYLINDRICAL_SURFACE('',#1065,1.65);
#75=CYLINDRICAL_SURFACE('',#1070,1.65);
#76=CYLINDRICAL_SURFACE('',#1075,1.65);
#77=CYLINDRICAL_SURFACE('',#1110,75.);
#78=CYLINDRICAL_SURFACE('',#1113,10.);
#79=CYLINDRICAL_SURFACE('',#1116,75.);
#80=CYLINDRICAL_SURFACE('',#1119,10.);
#81=CYLINDRICAL_SURFACE('',#1130,21.);
#82=CYLINDRICAL_SURFACE('',#1133,50.);
#83=CYLINDRICAL_SURFACE('',#1136,50.);
#84=CYLINDRICAL_SURFACE('',#1139,21.);
#85=CYLINDRICAL_SURFACE('',#1143,21.);
#86=CYLINDRICAL_SURFACE('',#1146,50.);
#87=CYLINDRICAL_SURFACE('',#1149,21.);
#88=CYLINDRICAL_SURFACE('',#1152,50.);
#89=CYLINDRICAL_SURFACE('',#1155,75.);
#90=CYLINDRICAL_SURFACE('',#1158,10.);
#91=CYLINDRICAL_SURFACE('',#1161,75.);
#92=CYLINDRICAL_SURFACE('',#1164,10.);
#93=FACE_OUTER_BOUND('',#151,.T.);
#94=FACE_OUTER_BOUND('',#152,.T.);
#95=FACE_OUTER_BOUND('',#153,.T.);
#96=FACE_OUTER_BOUND('',#154,.T.);
#97=FACE_OUTER_BOUND('',#155,.T.);
#98=FACE_OUTER_BOUND('',#156,.T.);
#99=FACE_OUTER_BOUND('',#157,.T.);
#100=FACE_OUTER_BOUND('',#158,.T.);
#101=FACE_OUTER_BOUND('',#159,.T.);
#102=FACE_OUTER_BOUND('',#160,.T.);
#103=FACE_OUTER_BOUND('',#161,.T.);
#104=FACE_OUTER_BOUND('',#162,.T.);
#105=FACE_OUTER_BOUND('',#163,.T.);
#106=FACE_OUTER_BOUND('',#164,.T.);
#107=FACE_OUTER_BOUND('',#165,.T.);
#108=FACE_OUTER_BOUND('',#166,.T.);
#109=FACE_OUTER_BOUND('',#167,.T.);
#110=FACE_OUTER_BOUND('',#168,.T.);
#111=FACE_OUTER_BOUND('',#169,.T.);
#112=FACE_OUTER_BOUND('',#170,.T.);
#113=FACE_OUTER_BOUND('',#171,.T.);
#114=FACE_OUTER_BOUND('',#172,.T.);
#115=FACE_OUTER_BOUND('',#173,.T.);
#116=FACE_OUTER_BOUND('',#174,.T.);
#117=FACE_OUTER_BOUND('',#175,.T.);
#118=FACE_OUTER_BOUND('',#176,.T.);
#119=FACE_OUTER_BOUND('',#177,.T.);
#120=FACE_OUTER_BOUND('',#178,.T.);
#121=FACE_OUTER_BOUND('',#179,.T.);
#122=FACE_OUTER_BOUND('',#180,.T.);
#123=FACE_OUTER_BOUND('',#181,.T.);
#124=FACE_OUTER_BOUND('',#182,.T.);
#125=FACE_OUTER_BOUND('',#183,.T.);
#126=FACE_OUTER_BOUND('',#192,.T.);
#127=FACE_OUTER_BOUND('',#193,.T.);
#128=FACE_OUTER_BOUND('',#194,.T.);
#129=FACE_OUTER_BOUND('',#195,.T.);
#130=FACE_OUTER_BOUND('',#196,.T.);
#131=FACE_OUTER_BOUND('',#197,.T.);
#132=FACE_OUTER_BOUND('',#198,.T.);
#133=FACE_OUTER_BOUND('',#199,.T.);
#134=FACE_OUTER_BOUND('',#200,.T.);
#135=FACE_OUTER_BOUND('',#201,.T.);
#136=FACE_OUTER_BOUND('',#202,.T.);
#137=FACE_OUTER_BOUND('',#203,.T.);
#138=FACE_OUTER_BOUND('',#204,.T.);
#139=FACE_OUTER_BOUND('',#205,.T.);
#140=FACE_OUTER_BOUND('',#206,.T.);
#141=FACE_OUTER_BOUND('',#207,.T.);
#142=FACE_OUTER_BOUND('',#208,.T.);
#143=FACE_OUTER_BOUND('',#209,.T.);
#144=FACE_OUTER_BOUND('',#210,.T.);
#145=FACE_OUTER_BOUND('',#211,.T.);
#146=FACE_OUTER_BOUND('',#212,.T.);
#147=FACE_OUTER_BOUND('',#213,.T.);
#148=FACE_OUTER_BOUND('',#214,.T.);
#149=FACE_OUTER_BOUND('',#215,.T.);
#150=FACE_OUTER_BOUND('',#216,.T.);
#151=EDGE_LOOP('',(#677,#678,#679,#680));
#152=EDGE_LOOP('',(#681,#682,#683,#684));
#153=EDGE_LOOP('',(#685,#686,#687,#688));
#154=EDGE_LOOP('',(#689,#690,#691,#692));
#155=EDGE_LOOP('',(#693,#694,#695,#696));
#156=EDGE_LOOP('',(#697,#698,#699,#700));
#157=EDGE_LOOP('',(#701,#702,#703,#704));
#158=EDGE_LOOP('',(#705,#706,#707,#708));
#159=EDGE_LOOP('',(#709,#710,#711,#712));
#160=EDGE_LOOP('',(#713,#714,#715,#716));
#161=EDGE_LOOP('',(#717,#718,#719,#720));
#162=EDGE_LOOP('',(#721,#722,#723,#724));
#163=EDGE_LOOP('',(#725,#726,#727,#728));
#164=EDGE_LOOP('',(#729,#730,#731,#732));
#165=EDGE_LOOP('',(#733,#734,#735,#736));
#166=EDGE_LOOP('',(#737,#738,#739,#740));
#167=EDGE_LOOP('',(#741,#742,#743,#744));
#168=EDGE_LOOP('',(#745,#746,#747,#748));
#169=EDGE_LOOP('',(#749,#750,#751,#752));
#170=EDGE_LOOP('',(#753,#754,#755,#756));
#171=EDGE_LOOP('',(#757,#758,#759,#760));
#172=EDGE_LOOP('',(#761,#762,#763,#764));
#173=EDGE_LOOP('',(#765,#766,#767,#768));
#174=EDGE_LOOP('',(#769,#770,#771,#772));
#175=EDGE_LOOP('',(#773,#774,#775,#776));
#176=EDGE_LOOP('',(#777,#778,#779,#780));
#177=EDGE_LOOP('',(#781,#782,#783,#784));
#178=EDGE_LOOP('',(#785,#786,#787,#788));
#179=EDGE_LOOP('',(#789,#790,#791,#792));
#180=EDGE_LOOP('',(#793,#794,#795,#796));
#181=EDGE_LOOP('',(#797,#798,#799,#800));
#182=EDGE_LOOP('',(#801,#802,#803,#804));
#183=EDGE_LOOP('',(#805,#806,#807,#808,#809,#810,#811,#812,#813,#814,#815,
#816,#817,#818,#819,#820));
#184=EDGE_LOOP('',(#821,#822,#823,#824));
#185=EDGE_LOOP('',(#825,#826,#827,#828));
#186=EDGE_LOOP('',(#829,#830,#831,#832));
#187=EDGE_LOOP('',(#833,#834,#835,#836));
#188=EDGE_LOOP('',(#837));
#189=EDGE_LOOP('',(#838));
#190=EDGE_LOOP('',(#839));
#191=EDGE_LOOP('',(#840));
#192=EDGE_LOOP('',(#841,#842,#843,#844));
#193=EDGE_LOOP('',(#845,#846,#847,#848));
#194=EDGE_LOOP('',(#849,#850,#851,#852));
#195=EDGE_LOOP('',(#853,#854,#855,#856));
#196=EDGE_LOOP('',(#857,#858,#859,#860));
#197=EDGE_LOOP('',(#861,#862,#863,#864));
#198=EDGE_LOOP('',(#865,#866,#867,#868));
#199=EDGE_LOOP('',(#869,#870,#871,#872));
#200=EDGE_LOOP('',(#873,#874,#875,#876));
#201=EDGE_LOOP('',(#877,#878,#879,#880));
#202=EDGE_LOOP('',(#881,#882,#883,#884));
#203=EDGE_LOOP('',(#885,#886,#887,#888));
#204=EDGE_LOOP('',(#889,#890,#891,#892));
#205=EDGE_LOOP('',(#893,#894,#895,#896));
#206=EDGE_LOOP('',(#897,#898,#899,#900));
#207=EDGE_LOOP('',(#901,#902,#903,#904));
#208=EDGE_LOOP('',(#905,#906,#907,#908));
#209=EDGE_LOOP('',(#909,#910,#911,#912));
#210=EDGE_LOOP('',(#913,#914,#915,#916));
#211=EDGE_LOOP('',(#917,#918,#919,#920));
#212=EDGE_LOOP('',(#921,#922,#923,#924));
#213=EDGE_LOOP('',(#925,#926,#927,#928));
#214=EDGE_LOOP('',(#929,#930,#931,#932));
#215=EDGE_LOOP('',(#933,#934,#935,#936));
#216=EDGE_LOOP('',(#937,#938,#939,#940,#941,#942,#943,#944,#945,#946,#947,
#948,#949,#950,#951,#952));
#217=EDGE_LOOP('',(#953,#954,#955,#956));
#218=EDGE_LOOP('',(#957,#958,#959,#960));
#219=EDGE_LOOP('',(#961,#962,#963,#964));
#220=EDGE_LOOP('',(#965,#966,#967,#968));
#221=EDGE_LOOP('',(#969));
#222=EDGE_LOOP('',(#970));
#223=EDGE_LOOP('',(#971));
#224=EDGE_LOOP('',(#972));
#225=LINE('',#1474,#305);
#226=LINE('',#1478,#306);
#227=LINE('',#1484,#307);
#228=LINE('',#1488,#308);
#229=LINE('',#1494,#309);
#230=LINE('',#1498,#310);
#231=LINE('',#1504,#311);
#232=LINE('',#1508,#312);
#233=LINE('',#1527,#313);
#234=LINE('',#1533,#314);
#235=LINE('',#1545,#315);
#236=LINE('',#1551,#316);
#237=LINE('',#1563,#317);
#238=LINE('',#1569,#318);
#239=LINE('',#1581,#319);
#240=LINE('',#1587,#320);
#241=LINE('',#1599,#321);
#242=LINE('',#1601,#322);
#243=LINE('',#1617,#323);
#244=LINE('',#1619,#324);
#245=LINE('',#1635,#325);
#246=LINE('',#1637,#326);
#247=LINE('',#1652,#327);
#248=LINE('',#1653,#328);
#249=LINE('',#1656,#329);
#250=LINE('',#1658,#330);
#251=LINE('',#1659,#331);
#252=LINE('',#1662,#332);
#253=LINE('',#1666,#333);
#254=LINE('',#1667,#334);
#255=LINE('',#1670,#335);
#256=LINE('',#1674,#336);
#257=LINE('',#1675,#337);
#258=LINE('',#1678,#338);
#259=LINE('',#1682,#339);
#260=LINE('',#1683,#340);
#261=LINE('',#1686,#341);
#262=LINE('',#1693,#342);
#263=LINE('',#1696,#343);
#264=LINE('',#1701,#344);
#265=LINE('',#1704,#345);
#266=LINE('',#1707,#346);
#267=LINE('',#1711,#347);
#268=LINE('',#1715,#348);
#269=LINE('',#1719,#349);
#270=LINE('',#1725,#350);
#271=LINE('',#1726,#351);
#272=LINE('',#1729,#352);
#273=LINE('',#1730,#353);
#274=LINE('',#1734,#354);
#275=LINE('',#1736,#355);
#276=LINE('',#1741,#356);
#277=LINE('',#1742,#357);
#278=LINE('',#1745,#358);
#279=LINE('',#1746,#359);
#280=LINE('',#1750,#360);
#281=LINE('',#1752,#361);
#282=LINE('',#1756,#362);
#283=LINE('',#1757,#363);
#284=LINE('',#1758,#364);
#285=LINE('',#1762,#365);
#286=LINE('',#1765,#366);
#287=LINE('',#1766,#367);
#288=LINE('',#1772,#368);
#289=LINE('',#1773,#369);
#290=LINE('',#1774,#370);
#291=LINE('',#1778,#371);
#292=LINE('',#1781,#372);
#293=LINE('',#1782,#373);
#294=LINE('',#1787,#374);
#295=LINE('',#1788,#375);
#296=LINE('',#1791,#376);
#297=LINE('',#1795,#377);
#298=LINE('',#1796,#378);
#299=LINE('',#1799,#379);
#300=LINE('',#1803,#380);
#301=LINE('',#1804,#381);
#302=LINE('',#1807,#382);
#303=LINE('',#1811,#383);
#304=LINE('',#1812,#384);
#305=VECTOR('',#1173,2.325);
#306=VECTOR('',#1178,1.65);
#307=VECTOR('',#1185,2.325);
#308=VECTOR('',#1190,1.65);
#309=VECTOR('',#1197,2.325);
#310=VECTOR('',#1202,1.65);
#311=VECTOR('',#1209,2.325);
#312=VECTOR('',#1214,1.65);
#313=VECTOR('',#1225,10.);
#314=VECTOR('',#1226,10.);
#315=VECTOR('',#1235,10.);
#316=VECTOR('',#1236,10.);
#317=VECTOR('',#1245,10.);
#318=VECTOR('',#1246,10.);
#319=VECTOR('',#1255,10.);
#320=VECTOR('',#1256,10.);
#321=VECTOR('',#1265,10.);
#322=VECTOR('',#1266,10.);
#323=VECTOR('',#1275,10.);
#324=VECTOR('',#1276,10.);
#325=VECTOR('',#1285,10.);
#326=VECTOR('',#1286,10.);
#327=VECTOR('',#1295,10.);
#328=VECTOR('',#1296,10.);
#329=VECTOR('',#1299,10.);
#330=VECTOR('',#1300,10.);
#331=VECTOR('',#1301,10.);
#332=VECTOR('',#1304,10.);
#333=VECTOR('',#1309,10.);
#334=VECTOR('',#1310,10.);
#335=VECTOR('',#1313,10.);
#336=VECTOR('',#1318,10.);
#337=VECTOR('',#1319,10.);
#338=VECTOR('',#1322,10.);
#339=VECTOR('',#1327,10.);
#340=VECTOR('',#1328,10.);
#341=VECTOR('',#1331,10.);
#342=VECTOR('',#1338,10.);
#343=VECTOR('',#1341,10.);
#344=VECTOR('',#1344,10.);
#345=VECTOR('',#1347,10.);
#346=VECTOR('',#1348,10.);
#347=VECTOR('',#1351,10.);
#348=VECTOR('',#1354,10.);
#349=VECTOR('',#1357,10.);
#350=VECTOR('',#1364,10.);
#351=VECTOR('',#1365,10.);
#352=VECTOR('',#1368,10.);
#353=VECTOR('',#1369,10.);
#354=VECTOR('',#1374,10.);
#355=VECTOR('',#1377,10.);
#356=VECTOR('',#1382,10.);
#357=VECTOR('',#1383,10.);
#358=VECTOR('',#1386,10.);
#359=VECTOR('',#1387,10.);
#360=VECTOR('',#1392,10.);
#361=VECTOR('',#1395,10.);
#362=VECTOR('',#1398,10.);
#363=VECTOR('',#1399,10.);
#364=VECTOR('',#1400,10.);
#365=VECTOR('',#1405,10.);
#366=VECTOR('',#1408,10.);
#367=VECTOR('',#1409,10.);
#368=VECTOR('',#1416,10.);
#369=VECTOR('',#1417,10.);
#370=VECTOR('',#1418,10.);
#371=VECTOR('',#1423,10.);
#372=VECTOR('',#1426,10.);
#373=VECTOR('',#1427,10.);
#374=VECTOR('',#1434,10.);
#375=VECTOR('',#1435,10.);
#376=VECTOR('',#1438,10.);
#377=VECTOR('',#1443,10.);
#378=VECTOR('',#1444,10.);
#379=VECTOR('',#1447,10.);
#380=VECTOR('',#1452,10.);
#381=VECTOR('',#1453,10.);
#382=VECTOR('',#1456,10.);
#383=VECTOR('',#1461,10.);
#384=VECTOR('',#1462,10.);
#385=CIRCLE('',#1058,3.);
#386=CIRCLE('',#1059,1.65);
#387=CIRCLE('',#1061,1.65);
#388=CIRCLE('',#1063,3.);
#389=CIRCLE('',#1064,1.65);
#390=CIRCLE('',#1066,1.65);
#391=CIRCLE('',#1068,3.);
#392=CIRCLE('',#1069,1.65);
#393=CIRCLE('',#1071,1.65);
#394=CIRCLE('',#1073,3.);
#395=CIRCLE('',#1074,1.65);
#396=CIRCLE('',#1076,1.65);
#397=CIRCLE('',#1078,8.00000000000001);
#398=CIRCLE('',#1079,10.);
#399=CIRCLE('',#1082,73.);
#400=CIRCLE('',#1083,75.);
#401=CIRCLE('',#1086,8.00000000000001);
#402=CIRCLE('',#1087,10.);
#403=CIRCLE('',#1090,73.);
#404=CIRCLE('',#1091,75.);
#405=CIRCLE('',#1094,8.00000000000001);
#406=CIRCLE('',#1095,10.);
#407=CIRCLE('',#1098,75.);
#408=CIRCLE('',#1099,73.);
#409=CIRCLE('',#1102,10.);
#410=CIRCLE('',#1103,8.00000000000001);
#411=CIRCLE('',#1106,75.);
#412=CIRCLE('',#1107,73.);
#413=CIRCLE('',#1111,75.);
#414=CIRCLE('',#1114,10.);
#415=CIRCLE('',#1117,75.);
#416=CIRCLE('',#1120,10.);
#417=CIRCLE('',#1122,50.);
#418=CIRCLE('',#1123,21.);
#419=CIRCLE('',#1124,50.);
#420=CIRCLE('',#1125,21.);
#421=CIRCLE('',#1126,21.);
#422=CIRCLE('',#1127,50.);
#423=CIRCLE('',#1128,50.);
#424=CIRCLE('',#1129,21.);
#425=CIRCLE('',#1131,21.);
#426=CIRCLE('',#1134,50.);
#427=CIRCLE('',#1137,50.);
#428=CIRCLE('',#1140,21.);
#429=CIRCLE('',#1144,21.);
#430=CIRCLE('',#1147,50.);
#431=CIRCLE('',#1150,21.);
#432=CIRCLE('',#1153,50.);
#433=CIRCLE('',#1156,75.);
#434=CIRCLE('',#1159,10.);
#435=CIRCLE('',#1162,75.);
#436=CIRCLE('',#1165,10.);
#437=VERTEX_POINT('',#1471);
#438=VERTEX_POINT('',#1473);
#439=VERTEX_POINT('',#1477);
#440=VERTEX_POINT('',#1481);
#441=VERTEX_POINT('',#1483);
#442=VERTEX_POINT('',#1487);
#443=VERTEX_POINT('',#1491);
#444=VERTEX_POINT('',#1493);
#445=VERTEX_POINT('',#1497);
#446=VERTEX_POINT('',#1501);
#447=VERTEX_POINT('',#1503);
#448=VERTEX_POINT('',#1507);
#449=VERTEX_POINT('',#1511);
#450=VERTEX_POINT('',#1512);
#451=VERTEX_POINT('',#1514);
#452=VERTEX_POINT('',#1519);
#453=VERTEX_POINT('',#1526);
#454=VERTEX_POINT('',#1528);
#455=VERTEX_POINT('',#1535);
#456=VERTEX_POINT('',#1537);
#457=VERTEX_POINT('',#1544);
#458=VERTEX_POINT('',#1546);
#459=VERTEX_POINT('',#1553);
#460=VERTEX_POINT('',#1555);
#461=VERTEX_POINT('',#1562);
#462=VERTEX_POINT('',#1564);
#463=VERTEX_POINT('',#1571);
#464=VERTEX_POINT('',#1573);
#465=VERTEX_POINT('',#1580);
#466=VERTEX_POINT('',#1582);
#467=VERTEX_POINT('',#1589);
#468=VERTEX_POINT('',#1591);
#469=VERTEX_POINT('',#1598);
#470=VERTEX_POINT('',#1600);
#471=VERTEX_POINT('',#1607);
#472=VERTEX_POINT('',#1609);
#473=VERTEX_POINT('',#1616);
#474=VERTEX_POINT('',#1618);
#475=VERTEX_POINT('',#1625);
#476=VERTEX_POINT('',#1627);
#477=VERTEX_POINT('',#1634);
#478=VERTEX_POINT('',#1636);
#479=VERTEX_POINT('',#1643);
#480=VERTEX_POINT('',#1645);
#481=VERTEX_POINT('',#1655);
#482=VERTEX_POINT('',#1657);
#483=VERTEX_POINT('',#1661);
#484=VERTEX_POINT('',#1665);
#485=VERTEX_POINT('',#1669);
#486=VERTEX_POINT('',#1673);
#487=VERTEX_POINT('',#1677);
#488=VERTEX_POINT('',#1681);
#489=VERTEX_POINT('',#1685);
#490=VERTEX_POINT('',#1689);
#491=VERTEX_POINT('',#1690);
#492=VERTEX_POINT('',#1692);
#493=VERTEX_POINT('',#1694);
#494=VERTEX_POINT('',#1697);
#495=VERTEX_POINT('',#1698);
#496=VERTEX_POINT('',#1700);
#497=VERTEX_POINT('',#1702);
#498=VERTEX_POINT('',#1705);
#499=VERTEX_POINT('',#1706);
#500=VERTEX_POINT('',#1708);
#501=VERTEX_POINT('',#1710);
#502=VERTEX_POINT('',#1713);
#503=VERTEX_POINT('',#1714);
#504=VERTEX_POINT('',#1716);
#505=VERTEX_POINT('',#1718);
#506=VERTEX_POINT('',#1722);
#507=VERTEX_POINT('',#1723);
#508=VERTEX_POINT('',#1728);
#509=VERTEX_POINT('',#1732);
#510=VERTEX_POINT('',#1738);
#511=VERTEX_POINT('',#1739);
#512=VERTEX_POINT('',#1744);
#513=VERTEX_POINT('',#1748);
#514=VERTEX_POINT('',#1754);
#515=VERTEX_POINT('',#1755);
#516=VERTEX_POINT('',#1760);
#517=VERTEX_POINT('',#1764);
#518=VERTEX_POINT('',#1770);
#519=VERTEX_POINT('',#1771);
#520=VERTEX_POINT('',#1776);
#521=VERTEX_POINT('',#1780);
#522=VERTEX_POINT('',#1786);
#523=VERTEX_POINT('',#1790);
#524=VERTEX_POINT('',#1794);
#525=VERTEX_POINT('',#1798);
#526=VERTEX_POINT('',#1802);
#527=VERTEX_POINT('',#1806);
#528=VERTEX_POINT('',#1810);
#529=EDGE_CURVE('',#437,#437,#385,.T.);
#530=EDGE_CURVE('',#437,#438,#225,.T.);
#531=EDGE_CURVE('',#438,#438,#386,.T.);
#532=EDGE_CURVE('',#438,#439,#226,.T.);
#533=EDGE_CURVE('',#439,#439,#387,.T.);
#534=EDGE_CURVE('',#440,#440,#388,.T.);
#535=EDGE_CURVE('',#440,#441,#227,.T.);
#536=EDGE_CURVE('',#441,#441,#389,.T.);
#537=EDGE_CURVE('',#441,#442,#228,.T.);
#538=EDGE_CURVE('',#442,#442,#390,.T.);
#539=EDGE_CURVE('',#443,#443,#391,.T.);
#540=EDGE_CURVE('',#443,#444,#229,.T.);
#541=EDGE_CURVE('',#444,#444,#392,.T.);
#542=EDGE_CURVE('',#444,#445,#230,.T.);
#543=EDGE_CURVE('',#445,#445,#393,.T.);
#544=EDGE_CURVE('',#446,#446,#394,.T.);
#545=EDGE_CURVE('',#446,#447,#231,.T.);
#546=EDGE_CURVE('',#447,#447,#395,.T.);
#547=EDGE_CURVE('',#447,#448,#232,.T.);
#548=EDGE_CURVE('',#448,#448,#396,.T.);
#549=EDGE_CURVE('',#449,#450,#397,.T.);
#550=EDGE_CURVE('',#450,#451,#57,.T.);
#551=EDGE_CURVE('',#451,#452,#398,.T.);
#552=EDGE_CURVE('',#449,#452,#58,.T.);
#553=EDGE_CURVE('',#450,#453,#233,.T.);
#554=EDGE_CURVE('',#453,#454,#59,.T.);
#555=EDGE_CURVE('',#454,#451,#234,.T.);
#556=EDGE_CURVE('',#453,#455,#399,.T.);
#557=EDGE_CURVE('',#455,#456,#60,.T.);
#558=EDGE_CURVE('',#456,#454,#400,.T.);
#559=EDGE_CURVE('',#455,#457,#235,.T.);
#560=EDGE_CURVE('',#457,#458,#61,.T.);
#561=EDGE_CURVE('',#458,#456,#236,.T.);
#562=EDGE_CURVE('',#457,#459,#401,.T.);
#563=EDGE_CURVE('',#459,#460,#62,.T.);
#564=EDGE_CURVE('',#460,#458,#402,.T.);
#565=EDGE_CURVE('',#459,#461,#237,.T.);
#566=EDGE_CURVE('',#461,#462,#63,.T.);
#567=EDGE_CURVE('',#462,#460,#238,.T.);
#568=EDGE_CURVE('',#461,#463,#403,.T.);
#569=EDGE_CURVE('',#463,#464,#64,.T.);
#570=EDGE_CURVE('',#464,#462,#404,.T.);
#571=EDGE_CURVE('',#463,#465,#239,.T.);
#572=EDGE_CURVE('',#465,#466,#65,.T.);
#573=EDGE_CURVE('',#466,#464,#240,.T.);
#574=EDGE_CURVE('',#465,#467,#405,.T.);
#575=EDGE_CURVE('',#467,#468,#66,.T.);
#576=EDGE_CURVE('',#468,#466,#406,.T.);
#577=EDGE_CURVE('',#469,#468,#241,.T.);
#578=EDGE_CURVE('',#467,#470,#242,.T.);
#579=EDGE_CURVE('',#470,#469,#67,.T.);
#580=EDGE_CURVE('',#471,#469,#407,.T.);
#581=EDGE_CURVE('',#470,#472,#408,.T.);
#582=EDGE_CURVE('',#472,#471,#68,.T.);
#583=EDGE_CURVE('',#473,#471,#243,.T.);
#584=EDGE_CURVE('',#472,#474,#244,.T.);
#585=EDGE_CURVE('',#474,#473,#69,.T.);
#586=EDGE_CURVE('',#475,#473,#409,.T.);
#587=EDGE_CURVE('',#474,#476,#410,.T.);
#588=EDGE_CURVE('',#476,#475,#70,.T.);
#589=EDGE_CURVE('',#477,#475,#245,.T.);
#590=EDGE_CURVE('',#476,#478,#246,.T.);
#591=EDGE_CURVE('',#478,#477,#71,.T.);
#592=EDGE_CURVE('',#479,#477,#411,.T.);
#593=EDGE_CURVE('',#478,#480,#412,.T.);
#594=EDGE_CURVE('',#480,#479,#72,.T.);
#595=EDGE_CURVE('',#452,#479,#247,.T.);
#596=EDGE_CURVE('',#480,#449,#248,.T.);
#597=EDGE_CURVE('',#481,#469,#249,.T.);
#598=EDGE_CURVE('',#482,#481,#250,.T.);
#599=EDGE_CURVE('',#482,#468,#251,.T.);
#600=EDGE_CURVE('',#483,#471,#252,.T.);
#601=EDGE_CURVE('',#483,#481,#413,.T.);
#602=EDGE_CURVE('',#484,#473,#253,.T.);
#603=EDGE_CURVE('',#483,#484,#254,.T.);
#604=EDGE_CURVE('',#485,#475,#255,.T.);
#605=EDGE_CURVE('',#485,#484,#414,.T.);
#606=EDGE_CURVE('',#486,#477,#256,.T.);
#607=EDGE_CURVE('',#485,#486,#257,.T.);
#608=EDGE_CURVE('',#487,#479,#258,.T.);
#609=EDGE_CURVE('',#487,#486,#415,.T.);
#610=EDGE_CURVE('',#488,#452,#259,.T.);
#611=EDGE_CURVE('',#488,#487,#260,.T.);
#612=EDGE_CURVE('',#489,#451,#261,.T.);
#613=EDGE_CURVE('',#489,#488,#416,.T.);
#614=EDGE_CURVE('',#490,#491,#417,.T.);
#615=EDGE_CURVE('',#491,#492,#262,.T.);
#616=EDGE_CURVE('',#492,#493,#418,.T.);
#617=EDGE_CURVE('',#493,#490,#263,.T.);
#618=EDGE_CURVE('',#494,#495,#419,.T.);
#619=EDGE_CURVE('',#495,#496,#264,.T.);
#620=EDGE_CURVE('',#496,#497,#420,.T.);
#621=EDGE_CURVE('',#497,#494,#265,.T.);
#622=EDGE_CURVE('',#498,#499,#266,.T.);
#623=EDGE_CURVE('',#499,#500,#421,.T.);
#624=EDGE_CURVE('',#500,#501,#267,.T.);
#625=EDGE_CURVE('',#501,#498,#422,.T.);
#626=EDGE_CURVE('',#502,#503,#268,.T.);
#627=EDGE_CURVE('',#503,#504,#423,.T.);
#628=EDGE_CURVE('',#504,#505,#269,.T.);
#629=EDGE_CURVE('',#505,#502,#424,.T.);
#630=EDGE_CURVE('',#506,#507,#425,.T.);
#631=EDGE_CURVE('',#507,#502,#270,.T.);
#632=EDGE_CURVE('',#506,#505,#271,.T.);
#633=EDGE_CURVE('',#508,#506,#272,.T.);
#634=EDGE_CURVE('',#508,#504,#273,.T.);
#635=EDGE_CURVE('',#509,#508,#426,.T.);
#636=EDGE_CURVE('',#509,#503,#274,.T.);
#637=EDGE_CURVE('',#507,#509,#275,.T.);
#638=EDGE_CURVE('',#510,#511,#427,.T.);
#639=EDGE_CURVE('',#511,#498,#276,.T.);
#640=EDGE_CURVE('',#510,#501,#277,.T.);
#641=EDGE_CURVE('',#512,#510,#278,.T.);
#642=EDGE_CURVE('',#512,#500,#279,.T.);
#643=EDGE_CURVE('',#513,#512,#428,.T.);
#644=EDGE_CURVE('',#513,#499,#280,.T.);
#645=EDGE_CURVE('',#511,#513,#281,.T.);
#646=EDGE_CURVE('',#514,#515,#282,.T.);
#647=EDGE_CURVE('',#515,#494,#283,.T.);
#648=EDGE_CURVE('',#514,#497,#284,.T.);
#649=EDGE_CURVE('',#516,#514,#429,.T.);
#650=EDGE_CURVE('',#516,#496,#285,.T.);
#651=EDGE_CURVE('',#517,#516,#286,.T.);
#652=EDGE_CURVE('',#517,#495,#287,.T.);
#653=EDGE_CURVE('',#515,#517,#430,.T.);
#654=EDGE_CURVE('',#518,#519,#288,.T.);
#655=EDGE_CURVE('',#519,#490,#289,.T.);
#656=EDGE_CURVE('',#518,#493,#290,.T.);
#657=EDGE_CURVE('',#520,#518,#431,.T.);
#658=EDGE_CURVE('',#520,#492,#291,.T.);
#659=EDGE_CURVE('',#521,#520,#292,.T.);
#660=EDGE_CURVE('',#521,#491,#293,.T.);
#661=EDGE_CURVE('',#519,#521,#432,.T.);
#662=EDGE_CURVE('',#522,#454,#294,.T.);
#663=EDGE_CURVE('',#522,#489,#295,.T.);
#664=EDGE_CURVE('',#523,#456,#296,.T.);
#665=EDGE_CURVE('',#523,#522,#433,.T.);
#666=EDGE_CURVE('',#524,#458,#297,.T.);
#667=EDGE_CURVE('',#524,#523,#298,.T.);
#668=EDGE_CURVE('',#525,#460,#299,.T.);
#669=EDGE_CURVE('',#525,#524,#434,.T.);
#670=EDGE_CURVE('',#526,#462,#300,.T.);
#671=EDGE_CURVE('',#526,#525,#301,.T.);
#672=EDGE_CURVE('',#527,#464,#302,.T.);
#673=EDGE_CURVE('',#527,#526,#435,.T.);
#674=EDGE_CURVE('',#528,#466,#303,.T.);
#675=EDGE_CURVE('',#527,#528,#304,.T.);
#676=EDGE_CURVE('',#482,#528,#436,.T.);
#677=ORIENTED_EDGE('',*,*,#529,.F.);
#678=ORIENTED_EDGE('',*,*,#530,.T.);
#679=ORIENTED_EDGE('',*,*,#531,.T.);
#680=ORIENTED_EDGE('',*,*,#530,.F.);
#681=ORIENTED_EDGE('',*,*,#531,.F.);
#682=ORIENTED_EDGE('',*,*,#532,.T.);
#683=ORIENTED_EDGE('',*,*,#533,.F.);
#684=ORIENTED_EDGE('',*,*,#532,.F.);
#685=ORIENTED_EDGE('',*,*,#534,.F.);
#686=ORIENTED_EDGE('',*,*,#535,.T.);
#687=ORIENTED_EDGE('',*,*,#536,.T.);
#688=ORIENTED_EDGE('',*,*,#535,.F.);
#689=ORIENTED_EDGE('',*,*,#536,.F.);
#690=ORIENTED_EDGE('',*,*,#537,.T.);
#691=ORIENTED_EDGE('',*,*,#538,.F.);
#692=ORIENTED_EDGE('',*,*,#537,.F.);
#693=ORIENTED_EDGE('',*,*,#539,.F.);
#694=ORIENTED_EDGE('',*,*,#540,.T.);
#695=ORIENTED_EDGE('',*,*,#541,.T.);
#696=ORIENTED_EDGE('',*,*,#540,.F.);
#697=ORIENTED_EDGE('',*,*,#541,.F.);
#698=ORIENTED_EDGE('',*,*,#542,.T.);
#699=ORIENTED_EDGE('',*,*,#543,.F.);
#700=ORIENTED_EDGE('',*,*,#542,.F.);
#701=ORIENTED_EDGE('',*,*,#544,.F.);
#702=ORIENTED_EDGE('',*,*,#545,.T.);
#703=ORIENTED_EDGE('',*,*,#546,.T.);
#704=ORIENTED_EDGE('',*,*,#545,.F.);
#705=ORIENTED_EDGE('',*,*,#546,.F.);
#706=ORIENTED_EDGE('',*,*,#547,.T.);
#707=ORIENTED_EDGE('',*,*,#548,.F.);
#708=ORIENTED_EDGE('',*,*,#547,.F.);
#709=ORIENTED_EDGE('',*,*,#549,.T.);
#710=ORIENTED_EDGE('',*,*,#550,.T.);
#711=ORIENTED_EDGE('',*,*,#551,.T.);
#712=ORIENTED_EDGE('',*,*,#552,.F.);
#713=ORIENTED_EDGE('',*,*,#553,.T.);
#714=ORIENTED_EDGE('',*,*,#554,.T.);
#715=ORIENTED_EDGE('',*,*,#555,.T.);
#716=ORIENTED_EDGE('',*,*,#550,.F.);
#717=ORIENTED_EDGE('',*,*,#556,.T.);
#718=ORIENTED_EDGE('',*,*,#557,.T.);
#719=ORIENTED_EDGE('',*,*,#558,.T.);
#720=ORIENTED_EDGE('',*,*,#554,.F.);
#721=ORIENTED_EDGE('',*,*,#559,.T.);
#722=ORIENTED_EDGE('',*,*,#560,.T.);
#723=ORIENTED_EDGE('',*,*,#561,.T.);
#724=ORIENTED_EDGE('',*,*,#557,.F.);
#725=ORIENTED_EDGE('',*,*,#562,.T.);
#726=ORIENTED_EDGE('',*,*,#563,.T.);
#727=ORIENTED_EDGE('',*,*,#564,.T.);
#728=ORIENTED_EDGE('',*,*,#560,.F.);
#729=ORIENTED_EDGE('',*,*,#565,.T.);
#730=ORIENTED_EDGE('',*,*,#566,.T.);
#731=ORIENTED_EDGE('',*,*,#567,.T.);
#732=ORIENTED_EDGE('',*,*,#563,.F.);
#733=ORIENTED_EDGE('',*,*,#568,.T.);
#734=ORIENTED_EDGE('',*,*,#569,.T.);
#735=ORIENTED_EDGE('',*,*,#570,.T.);
#736=ORIENTED_EDGE('',*,*,#566,.F.);
#737=ORIENTED_EDGE('',*,*,#571,.T.);
#738=ORIENTED_EDGE('',*,*,#572,.T.);
#739=ORIENTED_EDGE('',*,*,#573,.T.);
#740=ORIENTED_EDGE('',*,*,#569,.F.);
#741=ORIENTED_EDGE('',*,*,#574,.T.);
#742=ORIENTED_EDGE('',*,*,#575,.T.);
#743=ORIENTED_EDGE('',*,*,#576,.T.);
#744=ORIENTED_EDGE('',*,*,#572,.F.);
#745=ORIENTED_EDGE('',*,*,#577,.T.);
#746=ORIENTED_EDGE('',*,*,#575,.F.);
#747=ORIENTED_EDGE('',*,*,#578,.T.);
#748=ORIENTED_EDGE('',*,*,#579,.T.);
#749=ORIENTED_EDGE('',*,*,#580,.T.);
#750=ORIENTED_EDGE('',*,*,#579,.F.);
#751=ORIENTED_EDGE('',*,*,#581,.T.);
#752=ORIENTED_EDGE('',*,*,#582,.T.);
#753=ORIENTED_EDGE('',*,*,#583,.T.);
#754=ORIENTED_EDGE('',*,*,#582,.F.);
#755=ORIENTED_EDGE('',*,*,#584,.T.);
#756=ORIENTED_EDGE('',*,*,#585,.T.);
#757=ORIENTED_EDGE('',*,*,#586,.T.);
#758=ORIENTED_EDGE('',*,*,#585,.F.);
#759=ORIENTED_EDGE('',*,*,#587,.T.);
#760=ORIENTED_EDGE('',*,*,#588,.T.);
#761=ORIENTED_EDGE('',*,*,#589,.T.);
#762=ORIENTED_EDGE('',*,*,#588,.F.);
#763=ORIENTED_EDGE('',*,*,#590,.T.);
#764=ORIENTED_EDGE('',*,*,#591,.T.);
#765=ORIENTED_EDGE('',*,*,#592,.T.);
#766=ORIENTED_EDGE('',*,*,#591,.F.);
#767=ORIENTED_EDGE('',*,*,#593,.T.);
#768=ORIENTED_EDGE('',*,*,#594,.T.);
#769=ORIENTED_EDGE('',*,*,#595,.T.);
#770=ORIENTED_EDGE('',*,*,#594,.F.);
#771=ORIENTED_EDGE('',*,*,#596,.T.);
#772=ORIENTED_EDGE('',*,*,#552,.T.);
#773=ORIENTED_EDGE('',*,*,#577,.F.);
#774=ORIENTED_EDGE('',*,*,#597,.F.);
#775=ORIENTED_EDGE('',*,*,#598,.F.);
#776=ORIENTED_EDGE('',*,*,#599,.T.);
#777=ORIENTED_EDGE('',*,*,#580,.F.);
#778=ORIENTED_EDGE('',*,*,#600,.F.);
#779=ORIENTED_EDGE('',*,*,#601,.T.);
#780=ORIENTED_EDGE('',*,*,#597,.T.);
#781=ORIENTED_EDGE('',*,*,#583,.F.);
#782=ORIENTED_EDGE('',*,*,#602,.F.);
#783=ORIENTED_EDGE('',*,*,#603,.F.);
#784=ORIENTED_EDGE('',*,*,#600,.T.);
#785=ORIENTED_EDGE('',*,*,#586,.F.);
#786=ORIENTED_EDGE('',*,*,#604,.F.);
#787=ORIENTED_EDGE('',*,*,#605,.T.);
#788=ORIENTED_EDGE('',*,*,#602,.T.);
#789=ORIENTED_EDGE('',*,*,#589,.F.);
#790=ORIENTED_EDGE('',*,*,#606,.F.);
#791=ORIENTED_EDGE('',*,*,#607,.F.);
#792=ORIENTED_EDGE('',*,*,#604,.T.);
#793=ORIENTED_EDGE('',*,*,#592,.F.);
#794=ORIENTED_EDGE('',*,*,#608,.F.);
#795=ORIENTED_EDGE('',*,*,#609,.T.);
#796=ORIENTED_EDGE('',*,*,#606,.T.);
#797=ORIENTED_EDGE('',*,*,#595,.F.);
#798=ORIENTED_EDGE('',*,*,#610,.F.);
#799=ORIENTED_EDGE('',*,*,#611,.T.);
#800=ORIENTED_EDGE('',*,*,#608,.T.);
#801=ORIENTED_EDGE('',*,*,#551,.F.);
#802=ORIENTED_EDGE('',*,*,#612,.F.);
#803=ORIENTED_EDGE('',*,*,#613,.T.);
#804=ORIENTED_EDGE('',*,*,#610,.T.);
#805=ORIENTED_EDGE('',*,*,#574,.F.);
#806=ORIENTED_EDGE('',*,*,#571,.F.);
#807=ORIENTED_EDGE('',*,*,#568,.F.);
#808=ORIENTED_EDGE('',*,*,#565,.F.);
#809=ORIENTED_EDGE('',*,*,#562,.F.);
#810=ORIENTED_EDGE('',*,*,#559,.F.);
#811=ORIENTED_EDGE('',*,*,#556,.F.);
#812=ORIENTED_EDGE('',*,*,#553,.F.);
#813=ORIENTED_EDGE('',*,*,#549,.F.);
#814=ORIENTED_EDGE('',*,*,#596,.F.);
#815=ORIENTED_EDGE('',*,*,#593,.F.);
#816=ORIENTED_EDGE('',*,*,#590,.F.);
#817=ORIENTED_EDGE('',*,*,#587,.F.);
#818=ORIENTED_EDGE('',*,*,#584,.F.);
#819=ORIENTED_EDGE('',*,*,#581,.F.);
#820=ORIENTED_EDGE('',*,*,#578,.F.);
#821=ORIENTED_EDGE('',*,*,#614,.T.);
#822=ORIENTED_EDGE('',*,*,#615,.T.);
#823=ORIENTED_EDGE('',*,*,#616,.T.);
#824=ORIENTED_EDGE('',*,*,#617,.T.);
#825=ORIENTED_EDGE('',*,*,#618,.T.);
#826=ORIENTED_EDGE('',*,*,#619,.T.);
#827=ORIENTED_EDGE('',*,*,#620,.T.);
#828=ORIENTED_EDGE('',*,*,#621,.T.);
#829=ORIENTED_EDGE('',*,*,#622,.T.);
#830=ORIENTED_EDGE('',*,*,#623,.T.);
#831=ORIENTED_EDGE('',*,*,#624,.T.);
#832=ORIENTED_EDGE('',*,*,#625,.T.);
#833=ORIENTED_EDGE('',*,*,#626,.T.);
#834=ORIENTED_EDGE('',*,*,#627,.T.);
#835=ORIENTED_EDGE('',*,*,#628,.T.);
#836=ORIENTED_EDGE('',*,*,#629,.T.);
#837=ORIENTED_EDGE('',*,*,#544,.T.);
#838=ORIENTED_EDGE('',*,*,#539,.T.);
#839=ORIENTED_EDGE('',*,*,#534,.T.);
#840=ORIENTED_EDGE('',*,*,#529,.T.);
#841=ORIENTED_EDGE('',*,*,#630,.T.);
#842=ORIENTED_EDGE('',*,*,#631,.T.);
#843=ORIENTED_EDGE('',*,*,#629,.F.);
#844=ORIENTED_EDGE('',*,*,#632,.F.);
#845=ORIENTED_EDGE('',*,*,#633,.T.);
#846=ORIENTED_EDGE('',*,*,#632,.T.);
#847=ORIENTED_EDGE('',*,*,#628,.F.);
#848=ORIENTED_EDGE('',*,*,#634,.F.);
#849=ORIENTED_EDGE('',*,*,#635,.T.);
#850=ORIENTED_EDGE('',*,*,#634,.T.);
#851=ORIENTED_EDGE('',*,*,#627,.F.);
#852=ORIENTED_EDGE('',*,*,#636,.F.);
#853=ORIENTED_EDGE('',*,*,#637,.T.);
#854=ORIENTED_EDGE('',*,*,#636,.T.);
#855=ORIENTED_EDGE('',*,*,#626,.F.);
#856=ORIENTED_EDGE('',*,*,#631,.F.);
#857=ORIENTED_EDGE('',*,*,#638,.T.);
#858=ORIENTED_EDGE('',*,*,#639,.T.);
#859=ORIENTED_EDGE('',*,*,#625,.F.);
#860=ORIENTED_EDGE('',*,*,#640,.F.);
#861=ORIENTED_EDGE('',*,*,#641,.T.);
#862=ORIENTED_EDGE('',*,*,#640,.T.);
#863=ORIENTED_EDGE('',*,*,#624,.F.);
#864=ORIENTED_EDGE('',*,*,#642,.F.);
#865=ORIENTED_EDGE('',*,*,#643,.T.);
#866=ORIENTED_EDGE('',*,*,#642,.T.);
#867=ORIENTED_EDGE('',*,*,#623,.F.);
#868=ORIENTED_EDGE('',*,*,#644,.F.);
#869=ORIENTED_EDGE('',*,*,#645,.T.);
#870=ORIENTED_EDGE('',*,*,#644,.T.);
#871=ORIENTED_EDGE('',*,*,#622,.F.);
#872=ORIENTED_EDGE('',*,*,#639,.F.);
#873=ORIENTED_EDGE('',*,*,#646,.T.);
#874=ORIENTED_EDGE('',*,*,#647,.T.);
#875=ORIENTED_EDGE('',*,*,#621,.F.);
#876=ORIENTED_EDGE('',*,*,#648,.F.);
#877=ORIENTED_EDGE('',*,*,#649,.T.);
#878=ORIENTED_EDGE('',*,*,#648,.T.);
#879=ORIENTED_EDGE('',*,*,#620,.F.);
#880=ORIENTED_EDGE('',*,*,#650,.F.);
#881=ORIENTED_EDGE('',*,*,#651,.T.);
#882=ORIENTED_EDGE('',*,*,#650,.T.);
#883=ORIENTED_EDGE('',*,*,#619,.F.);
#884=ORIENTED_EDGE('',*,*,#652,.F.);
#885=ORIENTED_EDGE('',*,*,#653,.T.);
#886=ORIENTED_EDGE('',*,*,#652,.T.);
#887=ORIENTED_EDGE('',*,*,#618,.F.);
#888=ORIENTED_EDGE('',*,*,#647,.F.);
#889=ORIENTED_EDGE('',*,*,#654,.T.);
#890=ORIENTED_EDGE('',*,*,#655,.T.);
#891=ORIENTED_EDGE('',*,*,#617,.F.);
#892=ORIENTED_EDGE('',*,*,#656,.F.);
#893=ORIENTED_EDGE('',*,*,#657,.T.);
#894=ORIENTED_EDGE('',*,*,#656,.T.);
#895=ORIENTED_EDGE('',*,*,#616,.F.);
#896=ORIENTED_EDGE('',*,*,#658,.F.);
#897=ORIENTED_EDGE('',*,*,#659,.T.);
#898=ORIENTED_EDGE('',*,*,#658,.T.);
#899=ORIENTED_EDGE('',*,*,#615,.F.);
#900=ORIENTED_EDGE('',*,*,#660,.F.);
#901=ORIENTED_EDGE('',*,*,#661,.T.);
#902=ORIENTED_EDGE('',*,*,#660,.T.);
#903=ORIENTED_EDGE('',*,*,#614,.F.);
#904=ORIENTED_EDGE('',*,*,#655,.F.);
#905=ORIENTED_EDGE('',*,*,#555,.F.);
#906=ORIENTED_EDGE('',*,*,#662,.F.);
#907=ORIENTED_EDGE('',*,*,#663,.T.);
#908=ORIENTED_EDGE('',*,*,#612,.T.);
#909=ORIENTED_EDGE('',*,*,#558,.F.);
#910=ORIENTED_EDGE('',*,*,#664,.F.);
#911=ORIENTED_EDGE('',*,*,#665,.T.);
#912=ORIENTED_EDGE('',*,*,#662,.T.);
#913=ORIENTED_EDGE('',*,*,#561,.F.);
#914=ORIENTED_EDGE('',*,*,#666,.F.);
#915=ORIENTED_EDGE('',*,*,#667,.T.);
#916=ORIENTED_EDGE('',*,*,#664,.T.);
#917=ORIENTED_EDGE('',*,*,#564,.F.);
#918=ORIENTED_EDGE('',*,*,#668,.F.);
#919=ORIENTED_EDGE('',*,*,#669,.T.);
#920=ORIENTED_EDGE('',*,*,#666,.T.);
#921=ORIENTED_EDGE('',*,*,#567,.F.);
#922=ORIENTED_EDGE('',*,*,#670,.F.);
#923=ORIENTED_EDGE('',*,*,#671,.T.);
#924=ORIENTED_EDGE('',*,*,#668,.T.);
#925=ORIENTED_EDGE('',*,*,#570,.F.);
#926=ORIENTED_EDGE('',*,*,#672,.F.);
#927=ORIENTED_EDGE('',*,*,#673,.T.);
#928=ORIENTED_EDGE('',*,*,#670,.T.);
#929=ORIENTED_EDGE('',*,*,#573,.F.);
#930=ORIENTED_EDGE('',*,*,#674,.F.);
#931=ORIENTED_EDGE('',*,*,#675,.F.);
#932=ORIENTED_EDGE('',*,*,#672,.T.);
#933=ORIENTED_EDGE('',*,*,#576,.F.);
#934=ORIENTED_EDGE('',*,*,#599,.F.);
#935=ORIENTED_EDGE('',*,*,#676,.T.);
#936=ORIENTED_EDGE('',*,*,#674,.T.);
#937=ORIENTED_EDGE('',*,*,#601,.F.);
#938=ORIENTED_EDGE('',*,*,#603,.T.);
#939=ORIENTED_EDGE('',*,*,#605,.F.);
#940=ORIENTED_EDGE('',*,*,#607,.T.);
#941=ORIENTED_EDGE('',*,*,#609,.F.);
#942=ORIENTED_EDGE('',*,*,#611,.F.);
#943=ORIENTED_EDGE('',*,*,#613,.F.);
#944=ORIENTED_EDGE('',*,*,#663,.F.);
#945=ORIENTED_EDGE('',*,*,#665,.F.);
#946=ORIENTED_EDGE('',*,*,#667,.F.);
#947=ORIENTED_EDGE('',*,*,#669,.F.);
#948=ORIENTED_EDGE('',*,*,#671,.F.);
#949=ORIENTED_EDGE('',*,*,#673,.F.);
#950=ORIENTED_EDGE('',*,*,#675,.T.);
#951=ORIENTED_EDGE('',*,*,#676,.F.);
#952=ORIENTED_EDGE('',*,*,#598,.T.);
#953=ORIENTED_EDGE('',*,*,#637,.F.);
#954=ORIENTED_EDGE('',*,*,#630,.F.);
#955=ORIENTED_EDGE('',*,*,#633,.F.);
#956=ORIENTED_EDGE('',*,*,#635,.F.);
#957=ORIENTED_EDGE('',*,*,#645,.F.);
#958=ORIENTED_EDGE('',*,*,#638,.F.);
#959=ORIENTED_EDGE('',*,*,#641,.F.);
#960=ORIENTED_EDGE('',*,*,#643,.F.);
#961=ORIENTED_EDGE('',*,*,#653,.F.);
#962=ORIENTED_EDGE('',*,*,#646,.F.);
#963=ORIENTED_EDGE('',*,*,#649,.F.);
#964=ORIENTED_EDGE('',*,*,#651,.F.);
#965=ORIENTED_EDGE('',*,*,#661,.F.);
#966=ORIENTED_EDGE('',*,*,#654,.F.);
#967=ORIENTED_EDGE('',*,*,#657,.F.);
#968=ORIENTED_EDGE('',*,*,#659,.F.);
#969=ORIENTED_EDGE('',*,*,#548,.T.);
#970=ORIENTED_EDGE('',*,*,#543,.T.);
#971=ORIENTED_EDGE('',*,*,#538,.T.);
#972=ORIENTED_EDGE('',*,*,#533,.T.);
#973=CONICAL_SURFACE('',#1057,2.325,0.785398163397448);
#974=CONICAL_SURFACE('',#1062,2.325,0.785398163397448);
#975=CONICAL_SURFACE('',#1067,2.325,0.785398163397448);
#976=CONICAL_SURFACE('',#1072,2.325,0.785398163397448);
#977=CONICAL_SURFACE('',#1077,9.,0.785398163397447);
#978=CONICAL_SURFACE('',#1081,74.,0.785398163397447);
#979=CONICAL_SURFACE('',#1085,9.,0.785398163397447);
#980=CONICAL_SURFACE('',#1089,74.,0.785398163397447);
#981=CONICAL_SURFACE('',#1093,9.,0.785398163397447);
#982=CONICAL_SURFACE('',#1097,74.,0.785398163397444);
#983=CONICAL_SURFACE('',#1101,9.,0.785398163397446);
#984=CONICAL_SURFACE('',#1105,74.,0.785398163397444);
#985=ADVANCED_FACE('',(#93),#973,.F.);
#986=ADVANCED_FACE('',(#94),#73,.F.);
#987=ADVANCED_FACE('',(#95),#974,.F.);
#988=ADVANCED_FACE('',(#96),#74,.F.);
#989=ADVANCED_FACE('',(#97),#975,.F.);
#990=ADVANCED_FACE('',(#98),#75,.F.);
#991=ADVANCED_FACE('',(#99),#976,.F.);
#992=ADVANCED_FACE('',(#100),#76,.F.);
#993=ADVANCED_FACE('',(#101),#977,.T.);
#994=ADVANCED_FACE('',(#102),#31,.T.);
#995=ADVANCED_FACE('',(#103),#978,.T.);
#996=ADVANCED_FACE('',(#104),#32,.T.);
#997=ADVANCED_FACE('',(#105),#979,.T.);
#998=ADVANCED_FACE('',(#106),#33,.T.);
#999=ADVANCED_FACE('',(#107),#980,.T.);
#1000=ADVANCED_FACE('',(#108),#34,.T.);
#1001=ADVANCED_FACE('',(#109),#981,.T.);
#1002=ADVANCED_FACE('',(#110),#35,.T.);
#1003=ADVANCED_FACE('',(#111),#982,.T.);
#1004=ADVANCED_FACE('',(#112),#36,.T.);
#1005=ADVANCED_FACE('',(#113),#983,.T.);
#1006=ADVANCED_FACE('',(#114),#37,.T.);
#1007=ADVANCED_FACE('',(#115),#984,.T.);
#1008=ADVANCED_FACE('',(#116),#38,.T.);
#1009=ADVANCED_FACE('',(#117),#39,.T.);
#1010=ADVANCED_FACE('',(#118),#77,.T.);
#1011=ADVANCED_FACE('',(#119),#40,.T.);
#1012=ADVANCED_FACE('',(#120),#78,.T.);
#1013=ADVANCED_FACE('',(#121),#41,.T.);
#1014=ADVANCED_FACE('',(#122),#79,.T.);
#1015=ADVANCED_FACE('',(#123),#42,.T.);
#1016=ADVANCED_FACE('',(#124),#80,.T.);
#1017=ADVANCED_FACE('',(#125,#15,#16,#17,#18,#19,#20,#21,#22),#43,.T.);
#1018=ADVANCED_FACE('',(#126),#81,.T.);
#1019=ADVANCED_FACE('',(#127),#44,.T.);
#1020=ADVANCED_FACE('',(#128),#82,.F.);
#1021=ADVANCED_FACE('',(#129),#45,.T.);
#1022=ADVANCED_FACE('',(#130),#83,.F.);
#1023=ADVANCED_FACE('',(#131),#46,.T.);
#1024=ADVANCED_FACE('',(#132),#84,.T.);
#1025=ADVANCED_FACE('',(#133),#47,.T.);
#1026=ADVANCED_FACE('',(#134),#48,.T.);
#1027=ADVANCED_FACE('',(#135),#85,.T.);
#1028=ADVANCED_FACE('',(#136),#49,.T.);
#1029=ADVANCED_FACE('',(#137),#86,.F.);
#1030=ADVANCED_FACE('',(#138),#50,.T.);
#1031=ADVANCED_FACE('',(#139),#87,.T.);
#1032=ADVANCED_FACE('',(#140),#51,.T.);
#1033=ADVANCED_FACE('',(#141),#88,.F.);
#1034=ADVANCED_FACE('',(#142),#52,.T.);
#1035=ADVANCED_FACE('',(#143),#89,.T.);
#1036=ADVANCED_FACE('',(#144),#53,.T.);
#1037=ADVANCED_FACE('',(#145),#90,.T.);
#1038=ADVANCED_FACE('',(#146),#54,.T.);
#1039=ADVANCED_FACE('',(#147),#91,.T.);
#1040=ADVANCED_FACE('',(#148),#55,.T.);
#1041=ADVANCED_FACE('',(#149),#92,.T.);
#1042=ADVANCED_FACE('',(#150,#23,#24,#25,#26,#27,#28,#29,#30),#56,.F.);
#1043=CLOSED_SHELL('',(#985,#986,#987,#988,#989,#990,#991,#992,#993,#994,
#995,#996,#997,#998,#999,#1000,#1001,#1002,#1003,#1004,#1005,#1006,#1007,
#1008,#1009,#1010,#1011,#1012,#1013,#1014,#1015,#1016,#1017,#1018,#1019,
#1020,#1021,#1022,#1023,#1024,#1025,#1026,#1027,#1028,#1029,#1030,#1031,
#1032,#1033,#1034,#1035,#1036,#1037,#1038,#1039,#1040,#1041,#1042));
#1044=DERIVED_UNIT_ELEMENT(#1046,1.);
#1045=DERIVED_UNIT_ELEMENT(#1821,-3.);
#1046=(
MASS_UNIT()
NAMED_UNIT(*)
SI_UNIT(.KILO.,.GRAM.)
);
#1047=DERIVED_UNIT((#1044,#1045));
#1048=MEASURE_REPRESENTATION_ITEM('density measure',
POSITIVE_RATIO_MEASURE(7850.),#1047);
#1049=PROPERTY_DEFINITION_REPRESENTATION(#1054,#1051);
#1050=PROPERTY_DEFINITION_REPRESENTATION(#1055,#1052);
#1051=REPRESENTATION('material name',(#1053),#1818);
#1052=REPRESENTATION('density',(#1048),#1818);
#1053=DESCRIPTIVE_REPRESENTATION_ITEM('Steel','Steel');
#1054=PROPERTY_DEFINITION('material property','material name',#1828);
#1055=PROPERTY_DEFINITION('material property','density of part',#1828);
#1056=AXIS2_PLACEMENT_3D('',#1469,#1167,#1168);
#1057=AXIS2_PLACEMENT_3D('',#1470,#1169,#1170);
#1058=AXIS2_PLACEMENT_3D('',#1472,#1171,#1172);
#1059=AXIS2_PLACEMENT_3D('',#1475,#1174,#1175);
#1060=AXIS2_PLACEMENT_3D('',#1476,#1176,#1177);
#1061=AXIS2_PLACEMENT_3D('',#1479,#1179,#1180);
#1062=AXIS2_PLACEMENT_3D('',#1480,#1181,#1182);
#1063=AXIS2_PLACEMENT_3D('',#1482,#1183,#1184);
#1064=AXIS2_PLACEMENT_3D('',#1485,#1186,#1187);
#1065=AXIS2_PLACEMENT_3D('',#1486,#1188,#1189);
#1066=AXIS2_PLACEMENT_3D('',#1489,#1191,#1192);
#1067=AXIS2_PLACEMENT_3D('',#1490,#1193,#1194);
#1068=AXIS2_PLACEMENT_3D('',#1492,#1195,#1196);
#1069=AXIS2_PLACEMENT_3D('',#1495,#1198,#1199);
#1070=AXIS2_PLACEMENT_3D('',#1496,#1200,#1201);
#1071=AXIS2_PLACEMENT_3D('',#1499,#1203,#1204);
#1072=AXIS2_PLACEMENT_3D('',#1500,#1205,#1206);
#1073=AXIS2_PLACEMENT_3D('',#1502,#1207,#1208);
#1074=AXIS2_PLACEMENT_3D('',#1505,#1210,#1211);
#1075=AXIS2_PLACEMENT_3D('',#1506,#1212,#1213);
#1076=AXIS2_PLACEMENT_3D('',#1509,#1215,#1216);
#1077=AXIS2_PLACEMENT_3D('',#1510,#1217,#1218);
#1078=AXIS2_PLACEMENT_3D('',#1513,#1219,#1220);
#1079=AXIS2_PLACEMENT_3D('',#1520,#1221,#1222);
#1080=AXIS2_PLACEMENT_3D('',#1525,#1223,#1224);
#1081=AXIS2_PLACEMENT_3D('',#1534,#1227,#1228);
#1082=AXIS2_PLACEMENT_3D('',#1536,#1229,#1230);
#1083=AXIS2_PLACEMENT_3D('',#1542,#1231,#1232);
#1084=AXIS2_PLACEMENT_3D('',#1543,#1233,#1234);
#1085=AXIS2_PLACEMENT_3D('',#1552,#1237,#1238);
#1086=AXIS2_PLACEMENT_3D('',#1554,#1239,#1240);
#1087=AXIS2_PLACEMENT_3D('',#1560,#1241,#1242);
#1088=AXIS2_PLACEMENT_3D('',#1561,#1243,#1244);
#1089=AXIS2_PLACEMENT_3D('',#1570,#1247,#1248);
#1090=AXIS2_PLACEMENT_3D('',#1572,#1249,#1250);
#1091=AXIS2_PLACEMENT_3D('',#1578,#1251,#1252);
#1092=AXIS2_PLACEMENT_3D('',#1579,#1253,#1254);
#1093=AXIS2_PLACEMENT_3D('',#1588,#1257,#1258);
#1094=AXIS2_PLACEMENT_3D('',#1590,#1259,#1260);
#1095=AXIS2_PLACEMENT_3D('',#1596,#1261,#1262);
#1096=AXIS2_PLACEMENT_3D('',#1597,#1263,#1264);
#1097=AXIS2_PLACEMENT_3D('',#1606,#1267,#1268);
#1098=AXIS2_PLACEMENT_3D('',#1608,#1269,#1270);
#1099=AXIS2_PLACEMENT_3D('',#1610,#1271,#1272);
#1100=AXIS2_PLACEMENT_3D('',#1615,#1273,#1274);
#1101=AXIS2_PLACEMENT_3D('',#1624,#1277,#1278);
#1102=AXIS2_PLACEMENT_3D('',#1626,#1279,#1280);
#1103=AXIS2_PLACEMENT_3D('',#1628,#1281,#1282);
#1104=AXIS2_PLACEMENT_3D('',#1633,#1283,#1284);
#1105=AXIS2_PLACEMENT_3D('',#1642,#1287,#1288);
#1106=AXIS2_PLACEMENT_3D('',#1644,#1289,#1290);
#1107=AXIS2_PLACEMENT_3D('',#1646,#1291,#1292);
#1108=AXIS2_PLACEMENT_3D('',#1651,#1293,#1294);
#1109=AXIS2_PLACEMENT_3D('',#1654,#1297,#1298);
#1110=AXIS2_PLACEMENT_3D('',#1660,#1302,#1303);
#1111=AXIS2_PLACEMENT_3D('',#1663,#1305,#1306);
#1112=AXIS2_PLACEMENT_3D('',#1664,#1307,#1308);
#1113=AXIS2_PLACEMENT_3D('',#1668,#1311,#1312);
#1114=AXIS2_PLACEMENT_3D('',#1671,#1314,#1315);
#1115=AXIS2_PLACEMENT_3D('',#1672,#1316,#1317);
#1116=AXIS2_PLACEMENT_3D('',#1676,#1320,#1321);
#1117=AXIS2_PLACEMENT_3D('',#1679,#1323,#1324);
#1118=AXIS2_PLACEMENT_3D('',#1680,#1325,#1326);
#1119=AXIS2_PLACEMENT_3D('',#1684,#1329,#1330);
#1120=AXIS2_PLACEMENT_3D('',#1687,#1332,#1333);
#1121=AXIS2_PLACEMENT_3D('',#1688,#1334,#1335);
#1122=AXIS2_PLACEMENT_3D('',#1691,#1336,#1337);
#1123=AXIS2_PLACEMENT_3D('',#1695,#1339,#1340);
#1124=AXIS2_PLACEMENT_3D('',#1699,#1342,#1343);
#1125=AXIS2_PLACEMENT_3D('',#1703,#1345,#1346);
#1126=AXIS2_PLACEMENT_3D('',#1709,#1349,#1350);
#1127=AXIS2_PLACEMENT_3D('',#1712,#1352,#1353);
#1128=AXIS2_PLACEMENT_3D('',#1717,#1355,#1356);
#1129=AXIS2_PLACEMENT_3D('',#1720,#1358,#1359);
#1130=AXIS2_PLACEMENT_3D('',#1721,#1360,#1361);
#1131=AXIS2_PLACEMENT_3D('',#1724,#1362,#1363);
#1132=AXIS2_PLACEMENT_3D('',#1727,#1366,#1367);
#1133=AXIS2_PLACEMENT_3D('',#1731,#1370,#1371);
#1134=AXIS2_PLACEMENT_3D('',#1733,#1372,#1373);
#1135=AXIS2_PLACEMENT_3D('',#1735,#1375,#1376);
#1136=AXIS2_PLACEMENT_3D('',#1737,#1378,#1379);
#1137=AXIS2_PLACEMENT_3D('',#1740,#1380,#1381);
#1138=AXIS2_PLACEMENT_3D('',#1743,#1384,#1385);
#1139=AXIS2_PLACEMENT_3D('',#1747,#1388,#1389);
#1140=AXIS2_PLACEMENT_3D('',#1749,#1390,#1391);
#1141=AXIS2_PLACEMENT_3D('',#1751,#1393,#1394);
#1142=AXIS2_PLACEMENT_3D('',#1753,#1396,#1397);
#1143=AXIS2_PLACEMENT_3D('',#1759,#1401,#1402);
#1144=AXIS2_PLACEMENT_3D('',#1761,#1403,#1404);
#1145=AXIS2_PLACEMENT_3D('',#1763,#1406,#1407);
#1146=AXIS2_PLACEMENT_3D('',#1767,#1410,#1411);
#1147=AXIS2_PLACEMENT_3D('',#1768,#1412,#1413);
#1148=AXIS2_PLACEMENT_3D('',#1769,#1414,#1415);
#1149=AXIS2_PLACEMENT_3D('',#1775,#1419,#1420);
#1150=AXIS2_PLACEMENT_3D('',#1777,#1421,#1422);
#1151=AXIS2_PLACEMENT_3D('',#1779,#1424,#1425);
#1152=AXIS2_PLACEMENT_3D('',#1783,#1428,#1429);
#1153=AXIS2_PLACEMENT_3D('',#1784,#1430,#1431);
#1154=AXIS2_PLACEMENT_3D('',#1785,#1432,#1433);
#1155=AXIS2_PLACEMENT_3D('',#1789,#1436,#1437);
#1156=AXIS2_PLACEMENT_3D('',#1792,#1439,#1440);
#1157=AXIS2_PLACEMENT_3D('',#1793,#1441,#1442);
#1158=AXIS2_PLACEMENT_3D('',#1797,#1445,#1446);
#1159=AXIS2_PLACEMENT_3D('',#1800,#1448,#1449);
#1160=AXIS2_PLACEMENT_3D('',#1801,#1450,#1451);
#1161=AXIS2_PLACEMENT_3D('',#1805,#1454,#1455);
#1162=AXIS2_PLACEMENT_3D('',#1808,#1457,#1458);
#1163=AXIS2_PLACEMENT_3D('',#1809,#1459,#1460);
#1164=AXIS2_PLACEMENT_3D('',#1813,#1463,#1464);
#1165=AXIS2_PLACEMENT_3D('',#1814,#1465,#1466);
#1166=AXIS2_PLACEMENT_3D('',#1815,#1467,#1468);
#1167=DIRECTION('axis',(0.,0.,1.));
#1168=DIRECTION('refdir',(1.,0.,0.));
#1169=DIRECTION('center_axis',(0.,1.,0.));
#1170=DIRECTION('ref_axis',(0.,0.,1.));
#1171=DIRECTION('center_axis',(0.,-1.,0.));
#1172=DIRECTION('ref_axis',(0.,0.,1.));
#1173=DIRECTION('',(-8.65956056235493E-17,-0.707106781186548,0.707106781186547));
#1174=DIRECTION('center_axis',(0.,-1.,0.));
#1175=DIRECTION('ref_axis',(0.,0.,1.));
#1176=DIRECTION('center_axis',(0.,-1.,0.));
#1177=DIRECTION('ref_axis',(0.,0.,1.));
#1178=DIRECTION('',(0.,-1.,0.));
#1179=DIRECTION('center_axis',(0.,1.,0.));
#1180=DIRECTION('ref_axis',(0.,0.,1.));
#1181=DIRECTION('center_axis',(0.,1.,0.));
#1182=DIRECTION('ref_axis',(0.,0.,1.));
#1183=DIRECTION('center_axis',(0.,-1.,0.));
#1184=DIRECTION('ref_axis',(0.,0.,1.));
#1185=DIRECTION('',(-8.65956056235493E-17,-0.707106781186548,0.707106781186547));
#1186=DIRECTION('center_axis',(0.,-1.,0.));
#1187=DIRECTION('ref_axis',(0.,0.,1.));
#1188=DIRECTION('center_axis',(0.,-1.,0.));
#1189=DIRECTION('ref_axis',(0.,0.,1.));
#1190=DIRECTION('',(0.,-1.,0.));
#1191=DIRECTION('center_axis',(0.,1.,0.));
#1192=DIRECTION('ref_axis',(0.,0.,1.));
#1193=DIRECTION('center_axis',(0.,1.,0.));
#1194=DIRECTION('ref_axis',(0.,0.,1.));
#1195=DIRECTION('center_axis',(0.,-1.,0.));
#1196=DIRECTION('ref_axis',(0.,0.,1.));
#1197=DIRECTION('',(-8.65956056235493E-17,-0.707106781186548,0.707106781186547));
#1198=DIRECTION('center_axis',(0.,-1.,0.));
#1199=DIRECTION('ref_axis',(0.,0.,1.));
#1200=DIRECTION('center_axis',(0.,-1.,0.));
#1201=DIRECTION('ref_axis',(0.,0.,1.));
#1202=DIRECTION('',(0.,-1.,0.));
#1203=DIRECTION('center_axis',(0.,1.,0.));
#1204=DIRECTION('ref_axis',(0.,0.,1.));
#1205=DIRECTION('center_axis',(0.,1.,0.));
#1206=DIRECTION('ref_axis',(0.,0.,1.));
#1207=DIRECTION('center_axis',(0.,-1.,0.));
#1208=DIRECTION('ref_axis',(0.,0.,1.));
#1209=DIRECTION('',(-8.65956056235493E-17,-0.707106781186548,0.707106781186547));
#1210=DIRECTION('center_axis',(0.,-1.,0.));
#1211=DIRECTION('ref_axis',(0.,0.,1.));
#1212=DIRECTION('center_axis',(0.,-1.,0.));
#1213=DIRECTION('ref_axis',(0.,0.,1.));
#1214=DIRECTION('',(0.,-1.,0.));
#1215=DIRECTION('center_axis',(0.,1.,0.));
#1216=DIRECTION('ref_axis',(0.,0.,1.));
#1217=DIRECTION('center_axis',(0.,-1.,0.));
#1218=DIRECTION('ref_axis',(-8.94301653695862E-15,0.,1.));
#1219=DIRECTION('center_axis',(0.,-1.,0.));
#1220=DIRECTION('ref_axis',(-1.,0.,0.));
#1221=DIRECTION('center_axis',(0.,1.,0.));
#1222=DIRECTION('ref_axis',(-1.,0.,0.));
#1223=DIRECTION('center_axis',(-0.692339674901321,0.707106781186547,0.143755954859387));
#1224=DIRECTION('ref_axis',(0.203301621034039,0.,0.979116158014427));
#1225=DIRECTION('',(-0.203301621034039,0.,-0.979116158014427));
#1226=DIRECTION('',(0.203301621034039,0.,0.979116158014427));
#1227=DIRECTION('center_axis',(0.,-1.,0.));
#1228=DIRECTION('ref_axis',(-1.,0.,0.));
#1229=DIRECTION('center_axis',(0.,-1.,0.));
#1230=DIRECTION('ref_axis',(-1.,0.,0.));
#1231=DIRECTION('center_axis',(0.,1.,0.));
#1232=DIRECTION('ref_axis',(-1.,0.,0.));
#1233=DIRECTION('center_axis',(-0.143755954859387,0.707106781186548,0.69233967490132));
#1234=DIRECTION('ref_axis',(0.979116158014427,0.,0.20330162103404));
#1235=DIRECTION('',(-0.979116158014427,0.,-0.20330162103404));
#1236=DIRECTION('',(0.979116158014427,0.,0.20330162103404));
#1237=DIRECTION('center_axis',(0.,-1.,0.));
#1238=DIRECTION('ref_axis',(-1.,0.,8.82055185704388E-15));
#1239=DIRECTION('center_axis',(0.,-1.,0.));
#1240=DIRECTION('ref_axis',(0.,0.,-1.));
#1241=DIRECTION('center_axis',(0.,1.,0.));
#1242=DIRECTION('ref_axis',(0.,0.,-1.));
#1243=DIRECTION('center_axis',(-0.143755954859387,0.707106781186547,-0.692339674901321));
#1244=DIRECTION('ref_axis',(-0.979116158014427,0.,0.20330162103404));
#1245=DIRECTION('',(0.979116158014427,0.,-0.20330162103404));
#1246=DIRECTION('',(-0.979116158014427,0.,0.20330162103404));
#1247=DIRECTION('center_axis',(0.,-1.,0.));
#1248=DIRECTION('ref_axis',(-1.,0.,0.));
#1249=DIRECTION('center_axis',(0.,-1.,0.));
#1250=DIRECTION('ref_axis',(-1.,0.,0.));
#1251=DIRECTION('center_axis',(0.,1.,0.));
#1252=DIRECTION('ref_axis',(-1.,0.,0.));
#1253=DIRECTION('center_axis',(-0.69233967490132,0.707106781186548,-0.143755954859387));
#1254=DIRECTION('ref_axis',(-0.20330162103404,0.,0.979116158014427));
#1255=DIRECTION('',(0.20330162103404,0.,-0.979116158014427));
#1256=DIRECTION('',(-0.20330162103404,0.,0.979116158014427));
#1257=DIRECTION('center_axis',(0.,-1.,0.));
#1258=DIRECTION('ref_axis',(1.39349996950756E-15,0.,-1.));
#1259=DIRECTION('center_axis',(0.,-1.,0.));
#1260=DIRECTION('ref_axis',(1.,0.,0.));
#1261=DIRECTION('center_axis',(0.,1.,0.));
#1262=DIRECTION('ref_axis',(1.,0.,0.));
#1263=DIRECTION('center_axis',(0.69233967490132,0.707106781186548,-0.143755954859387));
#1264=DIRECTION('ref_axis',(-0.203301621034039,0.,-0.979116158014427));
#1265=DIRECTION('',(-0.20330162103404,0.,-0.979116158014427));
#1266=DIRECTION('',(0.20330162103404,0.,0.979116158014427));
#1267=DIRECTION('center_axis',(0.,-1.,0.));
#1268=DIRECTION('ref_axis',(1.,0.,0.));
#1269=DIRECTION('center_axis',(0.,1.,0.));
#1270=DIRECTION('ref_axis',(1.,0.,0.));
#1271=DIRECTION('center_axis',(0.,-1.,0.));
#1272=DIRECTION('ref_axis',(1.,0.,0.));
#1273=DIRECTION('center_axis',(0.143755954859574,0.707106781186548,-0.692339674901281));
#1274=DIRECTION('ref_axis',(-0.979116158014372,0.,-0.203301621034304));
#1275=DIRECTION('',(-0.979116158014372,0.,-0.203301621034304));
#1276=DIRECTION('',(0.979116158014372,0.,0.203301621034304));
#1277=DIRECTION('center_axis',(0.,-1.,0.));
#1278=DIRECTION('ref_axis',(0.0864098881508344,0.,-0.996259670582806));
#1279=DIRECTION('center_axis',(0.,1.,0.));
#1280=DIRECTION('ref_axis',(0.0864098881508344,0.,-0.996259670582806));
#1281=DIRECTION('center_axis',(0.,-1.,0.));
#1282=DIRECTION('ref_axis',(0.0864098881508344,0.,-0.996259670582806));
#1283=DIRECTION('center_axis',(0.143755954859574,0.707106781186549,0.69233967490128));
#1284=DIRECTION('ref_axis',(0.979116158014372,0.,-0.203301621034304));
#1285=DIRECTION('',(0.979116158014372,0.,-0.203301621034304));
#1286=DIRECTION('',(-0.979116158014372,0.,0.203301621034304));
#1287=DIRECTION('center_axis',(0.,-1.,0.));
#1288=DIRECTION('ref_axis',(1.,0.,0.));
#1289=DIRECTION('center_axis',(0.,1.,0.));
#1290=DIRECTION('ref_axis',(1.,0.,0.));
#1291=DIRECTION('center_axis',(0.,-1.,0.));
#1292=DIRECTION('ref_axis',(1.,0.,0.));
#1293=DIRECTION('center_axis',(0.692339674901321,0.707106781186547,0.143755954859387));
#1294=DIRECTION('ref_axis',(0.203301621034039,0.,-0.979116158014427));
#1295=DIRECTION('',(0.203301621034039,0.,-0.979116158014427));
#1296=DIRECTION('',(-0.203301621034039,0.,0.979116158014427));
#1297=DIRECTION('center_axis',(0.979116158014427,0.,-0.20330162103404));
#1298=DIRECTION('ref_axis',(-0.20330162103404,0.,-0.979116158014427));
#1299=DIRECTION('',(0.,1.,0.));
#1300=DIRECTION('',(0.20330162103404,0.,0.979116158014427));
#1301=DIRECTION('',(0.,1.,0.));
#1302=DIRECTION('center_axis',(0.,1.,0.));
#1303=DIRECTION('ref_axis',(1.,0.,0.));
#1304=DIRECTION('',(0.,1.,0.));
#1305=DIRECTION('center_axis',(0.,1.,0.));
#1306=DIRECTION('ref_axis',(1.,0.,0.));
#1307=DIRECTION('center_axis',(0.203301621034304,0.,-0.979116158014372));
#1308=DIRECTION('ref_axis',(-0.979116158014372,0.,-0.203301621034304));
#1309=DIRECTION('',(0.,1.,0.));
#1310=DIRECTION('',(0.979116158014372,0.,0.203301621034304));
#1311=DIRECTION('center_axis',(0.,1.,0.));
#1312=DIRECTION('ref_axis',(1.,0.,9.71445146547012E-17));
#1313=DIRECTION('',(0.,1.,0.));
#1314=DIRECTION('center_axis',(0.,1.,0.));
#1315=DIRECTION('ref_axis',(-0.0864098881508344,0.,0.996259670582806));
#1316=DIRECTION('center_axis',(0.203301621034304,0.,0.979116158014372));
#1317=DIRECTION('ref_axis',(0.979116158014372,0.,-0.203301621034304));
#1318=DIRECTION('',(0.,1.,0.));
#1319=DIRECTION('',(-0.979116158014372,0.,0.203301621034304));
#1320=DIRECTION('center_axis',(0.,1.,0.));
#1321=DIRECTION('ref_axis',(1.,0.,0.));
#1322=DIRECTION('',(0.,1.,0.));
#1323=DIRECTION('center_axis',(0.,1.,0.));
#1324=DIRECTION('ref_axis',(1.,0.,0.));
#1325=DIRECTION('center_axis',(0.979116158014427,0.,0.203301621034039));
#1326=DIRECTION('ref_axis',(0.203301621034039,0.,-0.979116158014427));
#1327=DIRECTION('',(0.,1.,0.));
#1328=DIRECTION('',(0.203301621034039,0.,-0.979116158014427));
#1329=DIRECTION('center_axis',(0.,1.,0.));
#1330=DIRECTION('ref_axis',(-1.,0.,0.));
#1331=DIRECTION('',(0.,1.,0.));
#1332=DIRECTION('center_axis',(0.,1.,0.));
#1333=DIRECTION('ref_axis',(-1.,0.,0.));
#1334=DIRECTION('center_axis',(0.,1.,0.));
#1335=DIRECTION('ref_axis',(1.,0.,0.));
#1336=DIRECTION('center_axis',(0.,-1.,0.));
#1337=DIRECTION('ref_axis',(1.,0.,0.));
#1338=DIRECTION('',(1.,0.,0.));
#1339=DIRECTION('center_axis',(0.,1.,0.));
#1340=DIRECTION('ref_axis',(1.,0.,0.));
#1341=DIRECTION('',(-1.11022302462516E-17,0.,1.));
#1342=DIRECTION('center_axis',(0.,-1.,0.));
#1343=DIRECTION('ref_axis',(1.,0.,0.));
#1344=DIRECTION('',(-1.11022302462516E-17,0.,1.));
#1345=DIRECTION('center_axis',(0.,1.,0.));
#1346=DIRECTION('ref_axis',(1.,0.,0.));
#1347=DIRECTION('',(-1.,0.,0.));
#1348=DIRECTION('',(1.11022302462516E-17,0.,-1.));
#1349=DIRECTION('center_axis',(0.,1.,0.));
#1350=DIRECTION('ref_axis',(1.,0.,0.));
#1351=DIRECTION('',(1.,0.,0.));
#1352=DIRECTION('center_axis',(0.,-1.,0.));
#1353=DIRECTION('ref_axis',(1.,0.,0.));
#1354=DIRECTION('',(1.11022302462516E-17,0.,-1.));
#1355=DIRECTION('center_axis',(0.,-1.,0.));
#1356=DIRECTION('ref_axis',(1.,0.,0.));
#1357=DIRECTION('',(-1.,0.,0.));
#1358=DIRECTION('center_axis',(0.,1.,0.));
#1359=DIRECTION('ref_axis',(1.,0.,0.));
#1360=DIRECTION('center_axis',(0.,1.,0.));
#1361=DIRECTION('ref_axis',(1.,0.,0.));
#1362=DIRECTION('center_axis',(0.,1.,0.));
#1363=DIRECTION('ref_axis',(1.,0.,0.));
#1364=DIRECTION('',(0.,1.,0.));
#1365=DIRECTION('',(0.,1.,0.));
#1366=DIRECTION('center_axis',(0.,0.,-1.));
#1367=DIRECTION('ref_axis',(-1.,0.,0.));
#1368=DIRECTION('',(-1.,0.,0.));
#1369=DIRECTION('',(0.,1.,0.));
#1370=DIRECTION('center_axis',(0.,1.,0.));
#1371=DIRECTION('ref_axis',(1.,0.,0.));
#1372=DIRECTION('center_axis',(0.,-1.,0.));
#1373=DIRECTION('ref_axis',(1.,0.,0.));
#1374=DIRECTION('',(0.,1.,0.));
#1375=DIRECTION('center_axis',(1.,0.,1.11022302462516E-17));
#1376=DIRECTION('ref_axis',(1.11022302462516E-17,0.,-1.));
#1377=DIRECTION('',(1.11022302462516E-17,0.,-1.));
#1378=DIRECTION('center_axis',(0.,1.,0.));
#1379=DIRECTION('ref_axis',(1.,0.,0.));
#1380=DIRECTION('center_axis',(0.,-1.,0.));
#1381=DIRECTION('ref_axis',(1.,0.,0.));
#1382=DIRECTION('',(0.,1.,0.));
#1383=DIRECTION('',(0.,1.,0.));
#1384=DIRECTION('center_axis',(0.,0.,1.));
#1385=DIRECTION('ref_axis',(1.,0.,0.));
#1386=DIRECTION('',(1.,0.,0.));
#1387=DIRECTION('',(0.,1.,0.));
#1388=DIRECTION('center_axis',(0.,1.,0.));
#1389=DIRECTION('ref_axis',(1.,0.,0.));
#1390=DIRECTION('center_axis',(0.,1.,0.));
#1391=DIRECTION('ref_axis',(1.,0.,0.));
#1392=DIRECTION('',(0.,1.,0.));
#1393=DIRECTION('center_axis',(1.,0.,1.11022302462516E-17));
#1394=DIRECTION('ref_axis',(1.11022302462516E-17,0.,-1.));
#1395=DIRECTION('',(1.11022302462516E-17,0.,-1.));
#1396=DIRECTION('center_axis',(0.,0.,-1.));
#1397=DIRECTION('ref_axis',(-1.,0.,0.));
#1398=DIRECTION('',(-1.,0.,0.));
#1399=DIRECTION('',(0.,1.,0.));
#1400=DIRECTION('',(0.,1.,0.));
#1401=DIRECTION('center_axis',(0.,1.,0.));
#1402=DIRECTION('ref_axis',(1.,0.,0.));
#1403=DIRECTION('center_axis',(0.,1.,0.));
#1404=DIRECTION('ref_axis',(1.,0.,0.));
#1405=DIRECTION('',(0.,1.,0.));
#1406=DIRECTION('center_axis',(-1.,0.,-1.11022302462516E-17));
#1407=DIRECTION('ref_axis',(-1.11022302462516E-17,0.,1.));
#1408=DIRECTION('',(-1.11022302462516E-17,0.,1.));
#1409=DIRECTION('',(0.,1.,0.));
#1410=DIRECTION('center_axis',(0.,1.,0.));
#1411=DIRECTION('ref_axis',(1.,0.,0.));
#1412=DIRECTION('center_axis',(0.,-1.,0.));
#1413=DIRECTION('ref_axis',(1.,0.,0.));
#1414=DIRECTION('center_axis',(-1.,0.,-1.11022302462516E-17));
#1415=DIRECTION('ref_axis',(-1.11022302462516E-17,0.,1.));
#1416=DIRECTION('',(-1.11022302462516E-17,0.,1.));
#1417=DIRECTION('',(0.,1.,0.));
#1418=DIRECTION('',(0.,1.,0.));
#1419=DIRECTION('center_axis',(0.,1.,0.));
#1420=DIRECTION('ref_axis',(1.,0.,0.));
#1421=DIRECTION('center_axis',(0.,1.,0.));
#1422=DIRECTION('ref_axis',(1.,0.,0.));
#1423=DIRECTION('',(0.,1.,0.));
#1424=DIRECTION('center_axis',(0.,0.,1.));
#1425=DIRECTION('ref_axis',(1.,0.,0.));
#1426=DIRECTION('',(1.,0.,0.));
#1427=DIRECTION('',(0.,1.,0.));
#1428=DIRECTION('center_axis',(0.,1.,0.));
#1429=DIRECTION('ref_axis',(1.,0.,0.));
#1430=DIRECTION('center_axis',(0.,-1.,0.));
#1431=DIRECTION('ref_axis',(1.,0.,0.));
#1432=DIRECTION('center_axis',(-0.979116158014427,0.,0.203301621034039));
#1433=DIRECTION('ref_axis',(0.203301621034039,0.,0.979116158014427));
#1434=DIRECTION('',(0.,1.,0.));
#1435=DIRECTION('',(0.203301621034039,0.,0.979116158014427));
#1436=DIRECTION('center_axis',(0.,1.,0.));
#1437=DIRECTION('ref_axis',(1.,0.,0.));
#1438=DIRECTION('',(0.,1.,0.));
#1439=DIRECTION('center_axis',(0.,1.,0.));
#1440=DIRECTION('ref_axis',(1.,0.,0.));
#1441=DIRECTION('center_axis',(-0.20330162103404,0.,0.979116158014427));
#1442=DIRECTION('ref_axis',(0.979116158014427,0.,0.20330162103404));
#1443=DIRECTION('',(0.,1.,0.));
#1444=DIRECTION('',(0.979116158014427,0.,0.20330162103404));
#1445=DIRECTION('center_axis',(0.,1.,0.));
#1446=DIRECTION('ref_axis',(0.,0.,-1.));
#1447=DIRECTION('',(0.,1.,0.));
#1448=DIRECTION('center_axis',(0.,1.,0.));
#1449=DIRECTION('ref_axis',(0.,0.,-1.));
#1450=DIRECTION('center_axis',(-0.20330162103404,0.,-0.979116158014427));
#1451=DIRECTION('ref_axis',(-0.979116158014427,0.,0.20330162103404));
#1452=DIRECTION('',(0.,1.,0.));
#1453=DIRECTION('',(-0.979116158014427,0.,0.20330162103404));
#1454=DIRECTION('center_axis',(0.,1.,0.));
#1455=DIRECTION('ref_axis',(1.,0.,0.));
#1456=DIRECTION('',(0.,1.,0.));
#1457=DIRECTION('center_axis',(0.,1.,0.));
#1458=DIRECTION('ref_axis',(1.,0.,0.));
#1459=DIRECTION('center_axis',(-0.979116158014427,0.,-0.20330162103404));
#1460=DIRECTION('ref_axis',(-0.20330162103404,0.,0.979116158014427));
#1461=DIRECTION('',(0.,1.,0.));
#1462=DIRECTION('',(0.20330162103404,0.,-0.979116158014427));
#1463=DIRECTION('center_axis',(0.,1.,0.));
#1464=DIRECTION('ref_axis',(1.,0.,0.));
#1465=DIRECTION('center_axis',(0.,1.,0.));
#1466=DIRECTION('ref_axis',(1.,0.,0.));
#1467=DIRECTION('center_axis',(0.,1.,0.));
#1468=DIRECTION('ref_axis',(1.,0.,0.));
#1469=CARTESIAN_POINT('',(0.,0.,0.));
#1470=CARTESIAN_POINT('Origin',(-97.5650747476,3.325,0.));
#1471=CARTESIAN_POINT('',(-97.5650747476,4.,-3.));
#1472=CARTESIAN_POINT('Origin',(-97.5650747476,4.,0.));
#1473=CARTESIAN_POINT('',(-97.5650747476,2.65,-1.65));
#1474=CARTESIAN_POINT('',(-97.5650747476,3.325,-2.325));
#1475=CARTESIAN_POINT('Origin',(-97.5650747476,2.65,0.));
#1476=CARTESIAN_POINT('Origin',(-97.5650747476,2.,0.));
#1477=CARTESIAN_POINT('',(-97.5650747476,0.,-1.65));
#1478=CARTESIAN_POINT('',(-97.5650747476,2.,-1.65));
#1479=CARTESIAN_POINT('Origin',(-97.5650747476,0.,0.));
#1480=CARTESIAN_POINT('Origin',(1.11022302462516E-15,3.325,-97.5650747476));
#1481=CARTESIAN_POINT('',(1.47761706436936E-15,4.,-100.5650747476));
#1482=CARTESIAN_POINT('Origin',(1.11022302462516E-15,4.,-97.5650747476));
#1483=CARTESIAN_POINT('',(1.31228974648447E-15,2.65,-99.2150747476));
#1484=CARTESIAN_POINT('',(1.39495340542692E-15,3.325,-99.8900747476));
#1485=CARTESIAN_POINT('Origin',(1.11022302462516E-15,2.65,-97.5650747476));
#1486=CARTESIAN_POINT('Origin',(1.11022302462516E-15,2.,-97.5650747476));
#1487=CARTESIAN_POINT('',(1.31228974648447E-15,0.,-99.2150747476));
#1488=CARTESIAN_POINT('',(1.31228974648447E-15,2.,-99.2150747476));
#1489=CARTESIAN_POINT('Origin',(1.11022302462516E-15,0.,-97.5650747476));
#1490=CARTESIAN_POINT('Origin',(97.5650747475673,3.325,0.));
#1491=CARTESIAN_POINT('',(97.5650747475673,4.,-3.));
#1492=CARTESIAN_POINT('Origin',(97.5650747475673,4.,0.));
#1493=CARTESIAN_POINT('',(97.5650747475673,2.65,-1.65));
#1494=CARTESIAN_POINT('',(97.5650747475673,3.325,-2.325));
#1495=CARTESIAN_POINT('Origin',(97.5650747475673,2.65,0.));
#1496=CARTESIAN_POINT('Origin',(97.5650747475673,2.,0.));
#1497=CARTESIAN_POINT('',(97.5650747475673,0.,-1.65));
#1498=CARTESIAN_POINT('',(97.5650747475673,2.,-1.65));
#1499=CARTESIAN_POINT('Origin',(97.5650747475673,0.,0.));
#1500=CARTESIAN_POINT('Origin',(5.55111512312578E-16,3.325,97.5650747476));
#1501=CARTESIAN_POINT('',(9.22505552056785E-16,4.,94.5650747476));
#1502=CARTESIAN_POINT('Origin',(5.55111512312578E-16,4.,97.5650747476));
#1503=CARTESIAN_POINT('',(7.57178234171891E-16,2.65,95.9150747476));
#1504=CARTESIAN_POINT('',(8.39841893114338E-16,3.325,95.2400747476));
#1505=CARTESIAN_POINT('Origin',(5.55111512312578E-16,2.65,97.5650747476));
#1506=CARTESIAN_POINT('Origin',(5.55111512312578E-16,2.,97.5650747476));
#1507=CARTESIAN_POINT('',(7.57178234171892E-16,0.,95.9150747476));
#1508=CARTESIAN_POINT('',(7.57178234171892E-16,2.,95.9150747476));
#1509=CARTESIAN_POINT('Origin',(5.55111512312578E-16,0.,97.5650747476));
#1510=CARTESIAN_POINT('Origin',(0.,3.,97.5650747476));
#1511=CARTESIAN_POINT('',(7.99764487096511,4.,97.3709703480476));
#1512=CARTESIAN_POINT('',(-7.99764487096514,4.,97.3709703480473));
#1513=CARTESIAN_POINT('Origin',(0.,4.,97.5650747476));
#1514=CARTESIAN_POINT('',(-10.,2.,97.5650747476));
#1515=CARTESIAN_POINT('Ctrl Pts',(-7.9976448709651,4.00000000000001,97.3709703480475));
#1516=CARTESIAN_POINT('Ctrl Pts',(-8.66314282569727,3.33615890082323,97.4311828466527));
#1517=CARTESIAN_POINT('Ctrl Pts',(-9.33580196357692,2.66419803642308,97.4968460400804));
#1518=CARTESIAN_POINT('Ctrl Pts',(-10.,2.,97.5650747476));
#1519=CARTESIAN_POINT('',(10.,2.,97.5650747476));
#1520=CARTESIAN_POINT('Origin',(0.,2.,97.5650747476));
#1521=CARTESIAN_POINT('Ctrl Pts',(7.99764487096511,3.99999999999999,97.3709703480475));
#1522=CARTESIAN_POINT('Ctrl Pts',(8.66314282567429,3.33615890084615,97.4311828466506));
#1523=CARTESIAN_POINT('Ctrl Pts',(9.3358019635158,2.6641980364842,97.4968460400741));
#1524=CARTESIAN_POINT('Ctrl Pts',(10.,2.,97.5650747476));
#1525=CARTESIAN_POINT('Origin',(-21.0246780803209,3.,39.5505818706596));
#1526=CARTESIAN_POINT('',(-13.3121412464888,4.,71.7759492827057));
#1527=CARTESIAN_POINT('',(-20.0455619223065,4.,39.3472802496256));
#1528=CARTESIAN_POINT('',(-15.,2.,73.4846922834953));
#1529=CARTESIAN_POINT('Ctrl Pts',(-13.3121412464888,4.,71.7759492827056));
#1530=CARTESIAN_POINT('Ctrl Pts',(-13.872830201684,3.33457202627001,72.3487354586635));
#1531=CARTESIAN_POINT('Ctrl Pts',(-14.4355693035041,2.66778035009988,72.9183557511262));
#1532=CARTESIAN_POINT('Ctrl Pts',(-15.,2.,73.4846922834953));
#1533=CARTESIAN_POINT('',(-22.0037942383354,2.,39.7538834916937));
#1534=CARTESIAN_POINT('Origin',(0.,3.,0.));
#1535=CARTESIAN_POINT('',(-71.7759492827057,4.,13.3121412464888));
#1536=CARTESIAN_POINT('Origin',(0.,4.,0.));
#1537=CARTESIAN_POINT('',(-73.4846922834953,2.,15.));
#1538=CARTESIAN_POINT('Ctrl Pts',(-71.7759492827057,4.,13.3121412464888));
#1539=CARTESIAN_POINT('Ctrl Pts',(-72.348735458663,3.33457202627054,13.8728302016836));
#1540=CARTESIAN_POINT('Ctrl Pts',(-72.9183557511252,2.66778035010098,14.4355693035032));
#1541=CARTESIAN_POINT('Ctrl Pts',(-73.4846922834953,2.00000000000001,15.));
#1542=CARTESIAN_POINT('Origin',(0.,2.,0.));
#1543=CARTESIAN_POINT('Origin',(-51.5907731027214,3.,18.524678080319));
#1544=CARTESIAN_POINT('',(-97.3709703480473,4.,7.9976448709651));
#1545=CARTESIAN_POINT('',(-51.3874714816874,4.,17.5455619223046));
#1546=CARTESIAN_POINT('',(-97.5650747476,2.,10.));
#1547=CARTESIAN_POINT('Ctrl Pts',(-97.3709703480474,4.00000000000001,7.9976448709651));
#1548=CARTESIAN_POINT('Ctrl Pts',(-97.4311828466524,3.33615890082589,8.6631428256946));
#1549=CARTESIAN_POINT('Ctrl Pts',(-97.4968460400797,2.66419803643016,9.33580196356985));
#1550=CARTESIAN_POINT('Ctrl Pts',(-97.5650747476,2.,10.));
#1551=CARTESIAN_POINT('',(-51.7940747237555,2.,19.5037942383334));
#1552=CARTESIAN_POINT('Origin',(-97.5650747476,3.,0.));
#1553=CARTESIAN_POINT('',(-97.3709703480475,4.,-7.9976448709651));
#1554=CARTESIAN_POINT('Origin',(-97.5650747476,4.,0.));
#1555=CARTESIAN_POINT('',(-97.5650747476,2.,-10.));
#1556=CARTESIAN_POINT('Ctrl Pts',(-97.3709703480475,4.,-7.9976448709651));
#1557=CARTESIAN_POINT('Ctrl Pts',(-97.4311828466517,3.33615890083399,-8.66314282568648));
#1558=CARTESIAN_POINT('Ctrl Pts',(-97.4968460400775,2.66419803645163,-9.33580196354837));
#1559=CARTESIAN_POINT('Ctrl Pts',(-97.5650747476,2.,-10.));
#1560=CARTESIAN_POINT('Origin',(-97.5650747476,2.,0.));
#1561=CARTESIAN_POINT('Origin',(-39.5505818706691,3.,-21.024678080319));
#1562=CARTESIAN_POINT('',(-71.7759492827057,4.,-13.3121412464888));
#1563=CARTESIAN_POINT('',(-39.3472802496351,4.,-20.0455619223046));
#1564=CARTESIAN_POINT('',(-73.4846922834953,2.,-15.));
#1565=CARTESIAN_POINT('Ctrl Pts',(-71.7759492827057,4.,-13.3121412464888));
#1566=CARTESIAN_POINT('Ctrl Pts',(-72.3487354586636,3.33457202626988,-13.8728302016842));
#1567=CARTESIAN_POINT('Ctrl Pts',(-72.9183557511264,2.66778035009964,-14.4355693035044));
#1568=CARTESIAN_POINT('Ctrl Pts',(-73.4846922834953,2.,-15.));
#1569=CARTESIAN_POINT('',(-39.7538834917031,2.,-22.0037942383334));
#1570=CARTESIAN_POINT('Origin',(0.,3.,0.));
#1571=CARTESIAN_POINT('',(-13.3121412464888,4.,-71.7759492827057));
#1572=CARTESIAN_POINT('Origin',(0.,4.,0.));
#1573=CARTESIAN_POINT('',(-15.,2.,-73.4846922834953));
#1574=CARTESIAN_POINT('Ctrl Pts',(-13.3121412464888,4.,-71.7759492827056));
#1575=CARTESIAN_POINT('Ctrl Pts',(-13.8728302016829,3.3345720262714,-72.3487354586623));
#1576=CARTESIAN_POINT('Ctrl Pts',(-14.4355693035017,2.6677803501028,-72.9183557511237));
#1577=CARTESIAN_POINT('Ctrl Pts',(-15.,2.,-73.4846922834953));
#1578=CARTESIAN_POINT('Origin',(0.,2.,0.));
#1579=CARTESIAN_POINT('Origin',(-18.5246780803209,3.,-51.590773102712));
#1580=CARTESIAN_POINT('',(-7.9976448709651,4.,-97.3709703480475));
#1581=CARTESIAN_POINT('',(-17.5455619223065,4.,-51.3874714816779));
#1582=CARTESIAN_POINT('',(-10.,2.,-97.5650747476));
#1583=CARTESIAN_POINT('Ctrl Pts',(-7.9976448709651,4.,-97.3709703480475));
#1584=CARTESIAN_POINT('Ctrl Pts',(-8.66314282568594,3.33615890083453,-97.4311828466517));
#1585=CARTESIAN_POINT('Ctrl Pts',(-9.33580196354683,2.66419803645317,-97.4968460400773));
#1586=CARTESIAN_POINT('Ctrl Pts',(-10.,2.,-97.5650747476));
#1587=CARTESIAN_POINT('',(-19.5037942383354,2.,-51.794074723746));
#1588=CARTESIAN_POINT('Origin',(1.11022302462516E-15,3.,-97.5650747476));
#1589=CARTESIAN_POINT('',(7.99764487096504,4.,-97.3709703480477));
#1590=CARTESIAN_POINT('Origin',(1.11022302462516E-15,4.,-97.5650747476));
#1591=CARTESIAN_POINT('',(10.,2.,-97.5650747476));
#1592=CARTESIAN_POINT('Ctrl Pts',(7.99764487096512,3.99999999999998,-97.3709703480474));
#1593=CARTESIAN_POINT('Ctrl Pts',(8.6631428256649,3.33615890085552,-97.4311828466497));
#1594=CARTESIAN_POINT('Ctrl Pts',(9.33580196349078,2.66419803650923,-97.4968460400716));
#1595=CARTESIAN_POINT('Ctrl Pts',(10.,2.,-97.5650747476));
#1596=CARTESIAN_POINT('Origin',(1.11022302462516E-15,2.,-97.5650747476));
#1597=CARTESIAN_POINT('Origin',(21.0246780803203,3.,-39.5505818706629));
#1598=CARTESIAN_POINT('',(15.,2.,-73.4846922834953));
#1599=CARTESIAN_POINT('',(22.0037942383347,2.,-39.7538834916969));
#1600=CARTESIAN_POINT('',(13.3121412464888,4.,-71.7759492827057));
#1601=CARTESIAN_POINT('',(20.0455619223058,4.,-39.3472802496289));
#1602=CARTESIAN_POINT('Ctrl Pts',(13.3121412464888,4.,-71.7759492827057));
#1603=CARTESIAN_POINT('Ctrl Pts',(13.8728302016833,3.33457202627084,-72.3487354586628));
#1604=CARTESIAN_POINT('Ctrl Pts',(14.4355693035027,2.66778035010165,-72.9183557511247));
#1605=CARTESIAN_POINT('Ctrl Pts',(15.,2.,-73.4846922834953));
#1606=CARTESIAN_POINT('Origin',(0.,3.,0.));
#1607=CARTESIAN_POINT('',(73.4846922834953,2.,-15.));
#1608=CARTESIAN_POINT('Origin',(0.,2.,0.));
#1609=CARTESIAN_POINT('',(71.7759492827056,4.,-13.3121412464892));
#1610=CARTESIAN_POINT('Origin',(0.,4.,0.));
#1611=CARTESIAN_POINT('Ctrl Pts',(71.7759492827056,4.,-13.3121412464892));
#1612=CARTESIAN_POINT('Ctrl Pts',(72.3487354586628,3.33457202627079,-13.8728302016836));
#1613=CARTESIAN_POINT('Ctrl Pts',(72.9183557511247,2.66778035010152,-14.4355693035029));
#1614=CARTESIAN_POINT('Ctrl Pts',(73.4846922834953,2.00000000000001,-15.));
#1615=CARTESIAN_POINT('Origin',(51.5907731026949,3.,-18.5246780803306));
#1616=CARTESIAN_POINT('',(97.5650747475673,2.,-10.));
#1617=CARTESIAN_POINT('',(51.7940747237293,2.,-19.503794238345));
#1618=CARTESIAN_POINT('',(97.3709703480145,4.,-7.9976448709651));
#1619=CARTESIAN_POINT('',(51.3874714816606,4.,-17.5455619223162));
#1620=CARTESIAN_POINT('Ctrl Pts',(97.3709703480145,4.,-7.9976448709651));
#1621=CARTESIAN_POINT('Ctrl Pts',(97.4311828466186,3.33615890083562,-8.66314282568485));
#1622=CARTESIAN_POINT('Ctrl Pts',(97.4968460400442,2.66419803645604,-9.33580196354396));
#1623=CARTESIAN_POINT('Ctrl Pts',(97.5650747475673,2.,-10.));
#1624=CARTESIAN_POINT('Origin',(97.5650747475673,3.,0.));
#1625=CARTESIAN_POINT('',(97.5650747475673,2.,10.));
#1626=CARTESIAN_POINT('Origin',(97.5650747475673,2.,0.));
#1627=CARTESIAN_POINT('',(97.3709703480144,4.,7.9976448709651));
#1628=CARTESIAN_POINT('Origin',(97.5650747475673,4.,0.));
#1629=CARTESIAN_POINT('Ctrl Pts',(97.3709703480144,4.,7.9976448709651));
#1630=CARTESIAN_POINT('Ctrl Pts',(97.4311828466187,3.33615890083482,8.66314282568566));
#1631=CARTESIAN_POINT('Ctrl Pts',(97.4968460400444,2.66419803645389,9.33580196354611));
#1632=CARTESIAN_POINT('Ctrl Pts',(97.5650747475673,2.,10.));
#1633=CARTESIAN_POINT('Origin',(39.550581870659,3.,21.0246780803306));
#1634=CARTESIAN_POINT('',(73.4846922834953,2.,15.));
#1635=CARTESIAN_POINT('',(39.7538834916933,2.,22.003794238345));
#1636=CARTESIAN_POINT('',(71.7759492827056,4.,13.3121412464892));
#1637=CARTESIAN_POINT('',(39.3472802496247,4.,20.0455619223162));
#1638=CARTESIAN_POINT('Ctrl Pts',(71.7759492827056,4.00000000000001,13.3121412464892));
#1639=CARTESIAN_POINT('Ctrl Pts',(72.3487354586628,3.33457202627076,13.8728302016837));
#1640=CARTESIAN_POINT('Ctrl Pts',(72.9183557511248,2.66778035010143,14.435569303503));
#1641=CARTESIAN_POINT('Ctrl Pts',(73.4846922834953,2.,15.));
#1642=CARTESIAN_POINT('Origin',(0.,3.,0.));
#1643=CARTESIAN_POINT('',(15.,2.,73.4846922834953));
#1644=CARTESIAN_POINT('Origin',(0.,2.,0.));
#1645=CARTESIAN_POINT('',(13.3121412464888,4.,71.7759492827057));
#1646=CARTESIAN_POINT('Origin',(0.,4.,0.));
#1647=CARTESIAN_POINT('Ctrl Pts',(13.3121412464888,4.,71.7759492827057));
#1648=CARTESIAN_POINT('Ctrl Pts',(13.8728302016828,3.33457202627149,72.3487354586622));
#1649=CARTESIAN_POINT('Ctrl Pts',(14.4355693035015,2.66778035010299,72.9183557511235));
#1650=CARTESIAN_POINT('Ctrl Pts',(15.,2.,73.4846922834953));
#1651=CARTESIAN_POINT('Origin',(18.5246780803203,3.,51.5907731027152));
#1652=CARTESIAN_POINT('',(19.5037942383347,2.,51.7940747237493));
#1653=CARTESIAN_POINT('',(17.5455619223058,4.,51.3874714816812));
#1654=CARTESIAN_POINT('Origin',(15.,0.,-73.4846922834953));
#1655=CARTESIAN_POINT('',(15.,0.,-73.4846922834953));
#1656=CARTESIAN_POINT('',(15.,0.,-73.4846922834953));
#1657=CARTESIAN_POINT('',(10.,0.,-97.5650747476));
#1658=CARTESIAN_POINT('',(10.,0.,-97.5650747476));
#1659=CARTESIAN_POINT('',(10.,0.,-97.5650747476));
#1660=CARTESIAN_POINT('Origin',(0.,0.,0.));
#1661=CARTESIAN_POINT('',(73.4846922834953,0.,-15.));
#1662=CARTESIAN_POINT('',(73.4846922834953,0.,-15.));
#1663=CARTESIAN_POINT('Origin',(0.,0.,0.));
#1664=CARTESIAN_POINT('Origin',(97.5650747475673,0.,-10.));
#1665=CARTESIAN_POINT('',(97.5650747475673,0.,-10.));
#1666=CARTESIAN_POINT('',(97.5650747475673,0.,-10.));
#1667=CARTESIAN_POINT('',(73.4846922834953,0.,-15.));
#1668=CARTESIAN_POINT('Origin',(97.5650747475673,0.,0.));
#1669=CARTESIAN_POINT('',(97.5650747475673,0.,10.));
#1670=CARTESIAN_POINT('',(97.5650747475673,0.,10.));
#1671=CARTESIAN_POINT('Origin',(97.5650747475673,0.,0.));
#1672=CARTESIAN_POINT('Origin',(73.4846922834953,0.,15.));
#1673=CARTESIAN_POINT('',(73.4846922834953,0.,15.));
#1674=CARTESIAN_POINT('',(73.4846922834953,0.,15.));
#1675=CARTESIAN_POINT('',(97.5650747475673,0.,10.));
#1676=CARTESIAN_POINT('Origin',(0.,0.,0.));
#1677=CARTESIAN_POINT('',(15.,0.,73.4846922834953));
#1678=CARTESIAN_POINT('',(15.,0.,73.4846922834953));
#1679=CARTESIAN_POINT('Origin',(0.,0.,0.));
#1680=CARTESIAN_POINT('Origin',(10.,0.,97.5650747476));
#1681=CARTESIAN_POINT('',(10.,0.,97.5650747476));
#1682=CARTESIAN_POINT('',(10.,0.,97.5650747476));
#1683=CARTESIAN_POINT('',(10.,0.,97.5650747476));
#1684=CARTESIAN_POINT('Origin',(0.,0.,97.5650747476));
#1685=CARTESIAN_POINT('',(-10.,0.,97.5650747476));
#1686=CARTESIAN_POINT('',(-10.,0.,97.5650747476));
#1687=CARTESIAN_POINT('Origin',(0.,0.,97.5650747476));
#1688=CARTESIAN_POINT('Origin',(-1.63602464908763E-11,4.,0.));
#1689=CARTESIAN_POINT('',(-10.,4.,48.9897948556636));
#1690=CARTESIAN_POINT('',(-48.9897948556636,4.,10.));
#1691=CARTESIAN_POINT('Origin',(0.,4.,0.));
#1692=CARTESIAN_POINT('',(-18.4661853126194,4.,10.));
#1693=CARTESIAN_POINT('',(-50.,4.,10.));
#1694=CARTESIAN_POINT('',(-10.,4.,18.4661853126194));
#1695=CARTESIAN_POINT('Origin',(0.,4.,0.));
#1696=CARTESIAN_POINT('',(-10.,4.,-50.));
#1697=CARTESIAN_POINT('',(-48.9897948556636,4.,-10.));
#1698=CARTESIAN_POINT('',(-10.,4.,-48.9897948556636));
#1699=CARTESIAN_POINT('Origin',(0.,4.,0.));
#1700=CARTESIAN_POINT('',(-10.,4.,-18.4661853126194));
#1701=CARTESIAN_POINT('',(-10.,4.,-50.));
#1702=CARTESIAN_POINT('',(-18.4661853126194,4.,-10.));
#1703=CARTESIAN_POINT('Origin',(0.,4.,0.));
#1704=CARTESIAN_POINT('',(50.,4.,-10.));
#1705=CARTESIAN_POINT('',(10.,4.,48.9897948556636));
#1706=CARTESIAN_POINT('',(10.,4.,18.4661853126194));
#1707=CARTESIAN_POINT('',(10.,4.,-50.));
#1708=CARTESIAN_POINT('',(18.4661853126194,4.,10.));
#1709=CARTESIAN_POINT('Origin',(0.,4.,0.));
#1710=CARTESIAN_POINT('',(48.9897948556636,4.,10.));
#1711=CARTESIAN_POINT('',(-50.,4.,10.));
#1712=CARTESIAN_POINT('Origin',(0.,4.,0.));
#1713=CARTESIAN_POINT('',(10.,4.,-18.4661853126194));
#1714=CARTESIAN_POINT('',(10.,4.,-48.9897948556636));
#1715=CARTESIAN_POINT('',(10.,4.,-50.));
#1716=CARTESIAN_POINT('',(48.9897948556636,4.,-10.));
#1717=CARTESIAN_POINT('Origin',(0.,4.,0.));
#1718=CARTESIAN_POINT('',(18.4661853126194,4.,-10.));
#1719=CARTESIAN_POINT('',(50.,4.,-10.));
#1720=CARTESIAN_POINT('Origin',(0.,4.,0.));
#1721=CARTESIAN_POINT('Origin',(0.,0.,0.));
#1722=CARTESIAN_POINT('',(18.4661853126194,0.,-10.));
#1723=CARTESIAN_POINT('',(10.,0.,-18.4661853126194));
#1724=CARTESIAN_POINT('Origin',(0.,0.,0.));
#1725=CARTESIAN_POINT('',(10.,0.,-18.4661853126194));
#1726=CARTESIAN_POINT('',(18.4661853126194,0.,-10.));
#1727=CARTESIAN_POINT('Origin',(48.9897948556636,0.,-10.));
#1728=CARTESIAN_POINT('',(48.9897948556636,0.,-10.));
#1729=CARTESIAN_POINT('',(50.,0.,-10.));
#1730=CARTESIAN_POINT('',(48.9897948556636,0.,-10.));
#1731=CARTESIAN_POINT('Origin',(0.,0.,0.));
#1732=CARTESIAN_POINT('',(10.,0.,-48.9897948556636));
#1733=CARTESIAN_POINT('Origin',(0.,0.,0.));
#1734=CARTESIAN_POINT('',(10.,0.,-48.9897948556636));
#1735=CARTESIAN_POINT('Origin',(10.,0.,-18.4661853126194));
#1736=CARTESIAN_POINT('',(10.,0.,-50.));
#1737=CARTESIAN_POINT('Origin',(0.,0.,0.));
#1738=CARTESIAN_POINT('',(48.9897948556636,0.,10.));
#1739=CARTESIAN_POINT('',(10.,0.,48.9897948556636));
#1740=CARTESIAN_POINT('Origin',(0.,0.,0.));
#1741=CARTESIAN_POINT('',(10.,0.,48.9897948556636));
#1742=CARTESIAN_POINT('',(48.9897948556636,0.,10.));
#1743=CARTESIAN_POINT('Origin',(18.4661853126194,0.,10.));
#1744=CARTESIAN_POINT('',(18.4661853126194,0.,10.));
#1745=CARTESIAN_POINT('',(-50.,0.,10.));
#1746=CARTESIAN_POINT('',(18.4661853126194,0.,10.));
#1747=CARTESIAN_POINT('Origin',(0.,0.,0.));
#1748=CARTESIAN_POINT('',(10.,0.,18.4661853126194));
#1749=CARTESIAN_POINT('Origin',(0.,0.,0.));
#1750=CARTESIAN_POINT('',(10.,0.,18.4661853126194));
#1751=CARTESIAN_POINT('Origin',(10.,0.,48.9897948556636));
#1752=CARTESIAN_POINT('',(10.,0.,-50.));
#1753=CARTESIAN_POINT('Origin',(-18.4661853126194,0.,-10.));
#1754=CARTESIAN_POINT('',(-18.4661853126194,0.,-10.));
#1755=CARTESIAN_POINT('',(-48.9897948556636,0.,-10.));
#1756=CARTESIAN_POINT('',(50.,0.,-10.));
#1757=CARTESIAN_POINT('',(-48.9897948556636,0.,-10.));
#1758=CARTESIAN_POINT('',(-18.4661853126194,0.,-10.));
#1759=CARTESIAN_POINT('Origin',(0.,0.,0.));
#1760=CARTESIAN_POINT('',(-10.,0.,-18.4661853126194));
#1761=CARTESIAN_POINT('Origin',(0.,0.,0.));
#1762=CARTESIAN_POINT('',(-10.,0.,-18.4661853126194));
#1763=CARTESIAN_POINT('Origin',(-10.,0.,-48.9897948556636));
#1764=CARTESIAN_POINT('',(-10.,0.,-48.9897948556636));
#1765=CARTESIAN_POINT('',(-10.,0.,-50.));
#1766=CARTESIAN_POINT('',(-10.,0.,-48.9897948556636));
#1767=CARTESIAN_POINT('Origin',(0.,0.,0.));
#1768=CARTESIAN_POINT('Origin',(0.,0.,0.));
#1769=CARTESIAN_POINT('Origin',(-10.,0.,18.4661853126194));
#1770=CARTESIAN_POINT('',(-10.,0.,18.4661853126194));
#1771=CARTESIAN_POINT('',(-10.,0.,48.9897948556636));
#1772=CARTESIAN_POINT('',(-10.,0.,-50.));
#1773=CARTESIAN_POINT('',(-10.,0.,48.9897948556636));
#1774=CARTESIAN_POINT('',(-10.,0.,18.4661853126194));
#1775=CARTESIAN_POINT('Origin',(0.,0.,0.));
#1776=CARTESIAN_POINT('',(-18.4661853126194,0.,9.99999999999999));
#1777=CARTESIAN_POINT('Origin',(0.,0.,0.));
#1778=CARTESIAN_POINT('',(-18.4661853126194,0.,9.99999999999999));
#1779=CARTESIAN_POINT('Origin',(-48.9897948556636,0.,10.));
#1780=CARTESIAN_POINT('',(-48.9897948556636,0.,10.));
#1781=CARTESIAN_POINT('',(-50.,0.,10.));
#1782=CARTESIAN_POINT('',(-48.9897948556636,0.,10.));
#1783=CARTESIAN_POINT('Origin',(0.,0.,0.));
#1784=CARTESIAN_POINT('Origin',(0.,0.,0.));
#1785=CARTESIAN_POINT('Origin',(-15.,0.,73.4846922834953));
#1786=CARTESIAN_POINT('',(-15.,0.,73.4846922834953));
#1787=CARTESIAN_POINT('',(-15.,0.,73.4846922834953));
#1788=CARTESIAN_POINT('',(-15.,0.,73.4846922834953));
#1789=CARTESIAN_POINT('Origin',(0.,0.,0.));
#1790=CARTESIAN_POINT('',(-73.4846922834953,0.,15.));
#1791=CARTESIAN_POINT('',(-73.4846922834953,0.,15.));
#1792=CARTESIAN_POINT('Origin',(0.,0.,0.));
#1793=CARTESIAN_POINT('Origin',(-97.5650747476,0.,10.));
#1794=CARTESIAN_POINT('',(-97.5650747476,0.,10.));
#1795=CARTESIAN_POINT('',(-97.5650747476,0.,10.));
#1796=CARTESIAN_POINT('',(-97.5650747476,0.,10.));
#1797=CARTESIAN_POINT('Origin',(-97.5650747476,0.,0.));
#1798=CARTESIAN_POINT('',(-97.5650747476,0.,-10.));
#1799=CARTESIAN_POINT('',(-97.5650747476,0.,-10.));
#1800=CARTESIAN_POINT('Origin',(-97.5650747476,0.,0.));
#1801=CARTESIAN_POINT('Origin',(-73.4846922834953,0.,-15.));
#1802=CARTESIAN_POINT('',(-73.4846922834953,0.,-15.));
#1803=CARTESIAN_POINT('',(-73.4846922834953,0.,-15.));
#1804=CARTESIAN_POINT('',(-73.4846922834953,0.,-15.));
#1805=CARTESIAN_POINT('Origin',(0.,0.,0.));
#1806=CARTESIAN_POINT('',(-15.,0.,-73.4846922834953));
#1807=CARTESIAN_POINT('',(-15.,0.,-73.4846922834953));
#1808=CARTESIAN_POINT('Origin',(0.,0.,0.));
#1809=CARTESIAN_POINT('Origin',(-10.,0.,-97.5650747476));
#1810=CARTESIAN_POINT('',(-10.,0.,-97.5650747476));
#1811=CARTESIAN_POINT('',(-10.,0.,-97.5650747476));
#1812=CARTESIAN_POINT('',(-15.,0.,-73.4846922834953));
#1813=CARTESIAN_POINT('Origin',(1.11022302462516E-15,0.,-97.5650747476));
#1814=CARTESIAN_POINT('Origin',(1.11022302462516E-15,0.,-97.5650747476));
#1815=CARTESIAN_POINT('Origin',(-1.63602464908763E-11,0.,0.));
#1816=UNCERTAINTY_MEASURE_WITH_UNIT(LENGTH_MEASURE(0.01),#1820,
'DISTANCE_ACCURACY_VALUE',
'Maximum model space distance between geometric entities at asserted c
onnectivities');
#1817=UNCERTAINTY_MEASURE_WITH_UNIT(LENGTH_MEASURE(0.01),#1820,
'DISTANCE_ACCURACY_VALUE',
'Maximum model space distance between geometric entities at asserted c
onnectivities');
#1818=(
GEOMETRIC_REPRESENTATION_CONTEXT(3)
GLOBAL_UNCERTAINTY_ASSIGNED_CONTEXT((#1816))
GLOBAL_UNIT_ASSIGNED_CONTEXT((#1820,#1822,#1823))
REPRESENTATION_CONTEXT('','3D')
);
#1819=(
GEOMETRIC_REPRESENTATION_CONTEXT(3)
GLOBAL_UNCERTAINTY_ASSIGNED_CONTEXT((#1817))
GLOBAL_UNIT_ASSIGNED_CONTEXT((#1820,#1822,#1823))
REPRESENTATION_CONTEXT('','3D')
);
#1820=(
LENGTH_UNIT()
NAMED_UNIT(*)
SI_UNIT(.MILLI.,.METRE.)
);
#1821=(
LENGTH_UNIT()
NAMED_UNIT(*)
SI_UNIT($,.METRE.)
);
#1822=(
NAMED_UNIT(*)
PLANE_ANGLE_UNIT()
SI_UNIT($,.RADIAN.)
);
#1823=(
NAMED_UNIT(*)
SI_UNIT($,.STERADIAN.)
SOLID_ANGLE_UNIT()
);
#1824=SHAPE_DEFINITION_REPRESENTATION(#1825,#1826);
#1825=PRODUCT_DEFINITION_SHAPE('',$,#1828);
#1826=SHAPE_REPRESENTATION('',(#1056),#1818);
#1827=PRODUCT_DEFINITION_CONTEXT('part definition',#1832,'design');
#1828=PRODUCT_DEFINITION('2026-09-26-22-16-45-742',
'base part ms project final',#1829,#1827);
#1829=PRODUCT_DEFINITION_FORMATION('',$,#1834);
#1830=PRODUCT_RELATED_PRODUCT_CATEGORY('base part ms project final',
'base part ms project final',(#1834));
#1831=APPLICATION_PROTOCOL_DEFINITION('international standard',
'automotive_design',2009,#1832);
#1832=APPLICATION_CONTEXT(
'Core Data for Automotive Mechanical Design Process');
#1833=PRODUCT_CONTEXT('part definition',#1832,'mechanical');
#1834=PRODUCT('2026-09-26-22-16-45-742','base part ms project final',$,
(#1833));
#1835=PRESENTATION_STYLE_ASSIGNMENT((#1836));
#1836=SURFACE_STYLE_USAGE(.BOTH.,#1837);
#1837=SURFACE_SIDE_STYLE('',(#1838));
#1838=SURFACE_STYLE_FILL_AREA(#1839);
#1839=FILL_AREA_STYLE('Steel - Satin',(#1840));
#1840=FILL_AREA_STYLE_COLOUR('Steel - Satin',#1841);
#1841=COLOUR_RGB('Steel - Satin',0.627450980392157,0.627450980392157,0.627450980392157);
ENDSEC;
END-ISO-10303-21;
